<?xml version="1.0" encoding="utf-8"?>
<!-- Generator: Adobe Illustrator 26.0.1, SVG Export Plug-In . SVG Version: 6.00 Build 0)  -->
<svg version="1.1" id="Layer_1" xmlns="http://www.w3.org/2000/svg" xmlns:xlink="http://www.w3.org/1999/xlink" x="0px" y="0px"
	 viewBox="0 0 300 300" style="enable-background:new 0 0 300 300;" xml:space="preserve">
<style type="text/css">
	.st0{fill:#FFCD00;}
	.st1{fill:#231F20;}
	.st2{fill:#00843D;}
	.st3{fill:url(#SVGID_1_);}
	.st4{fill:url(#SVGID_00000126304743403081149600000002089988514215470760_);}
	.st5{fill:none;}
</style>
<g>
	<g>
		<path class="st0" d="M150,94.83c-30.42,0-55.17,24.75-55.17,55.17c0,30.42,24.75,55.17,55.17,55.17s55.17-24.75,55.17-55.17
			C205.17,119.58,180.42,94.83,150,94.83z M150,202.17c-28.77,0-52.17-23.4-52.17-52.17c0-28.77,23.4-52.17,52.17-52.17
			s52.17,23.4,52.17,52.17C202.17,178.77,178.77,202.17,150,202.17z"/>
	</g>
	<g>
		<g>
			<path class="st0" d="M150,71.6c-43.23,0-78.4,35.17-78.4,78.4c0,43.23,35.17,78.4,78.4,78.4s78.4-35.17,78.4-78.4
				C228.4,106.77,193.23,71.6,150,71.6z M150,225.4c-41.58,0-75.4-33.82-75.4-75.4c0-41.58,33.82-75.4,75.4-75.4
				s75.4,33.82,75.4,75.4C225.4,191.58,191.58,225.4,150,225.4z"/>
		</g>
	</g>
	<path id="XMLID_2833_" class="st1" d="M197.79,149.81c0,0,0.01-0.01,0.02-0.03C197.8,149.8,197.79,149.81,197.79,149.81z"/>
	<g>
		<g>
			<path class="st2" d="M165.51,110.89c0.63,1.22,2.07,1.39,2.13,1.39l0.02,0c0.6-0.01,2.56-0.02,2.58-0.02l0.33,0l-0.2-0.29
				c-0.01-0.02-1.17-1.69-1.52-2.21l-0.01-0.02c-0.04-0.05-1.03-1.17-2.32-0.98c-1.22,0.18-1.73,0.06-2.23-0.06l-0.65-0.15l0.5,0.47
				C164.52,109.39,164.92,109.75,165.51,110.89z"/>
			<path class="st2" d="M186.12,182.78l-0.17,0.05c-0.64,0.17-1.23,0.18-1.87,0.02c-0.47-0.12-0.86-0.21-1.22-0.28
				c-1.03-0.2-1.91,0.06-2.63,0.76c-0.09,0.09-0.33,0.33-0.6,0.59c-0.08,0-0.17,0.03-0.27,0.11c-4.77,3.85-10.28,6.57-16.15,7.88
				c-2.11,0.47-4.25,0.75-6.4,0.86c-0.36-2.28-3.12-4-6.58-4c-3.47,0-6.24,1.73-6.59,4.02c-2.3-0.09-4.6-0.37-6.85-0.88
				c-5.87-1.31-11.38-4.03-16.15-7.88c-0.09-0.07-0.18-0.1-0.27-0.11c-0.27-0.27-0.51-0.5-0.6-0.59c-0.71-0.71-1.6-0.96-2.63-0.76
				c-0.36,0.07-0.75,0.16-1.22,0.28c-0.64,0.16-1.23,0.16-1.87-0.02l-0.17-0.05l-1.46-1.5c-0.03-0.03-0.08-0.03-0.11,0
				c-0.03,0.03-0.03,0.09,0,0.12c0,0,3.23,3.33,3.72,3.81c0.4,0.39,0.93,0.58,1.46,0.51c0.52-0.07,1.04-0.18,1.55-0.28
				c0.27-0.06,0.54-0.11,0.81-0.16c0.1-0.02,0.33-0.04,0.56-0.07c1.09,0.87,2.22,1.68,3.39,2.43c5.27,3.38,11.24,5.46,17.36,6.08
				c0.83,0.08,1.66,0.13,2.5,0.16c0.43,2.23,3.15,3.9,6.56,3.9c3.43,0,6.16-1.68,6.57-3.92c0.68-0.03,1.36-0.06,2.04-0.13
				c6.13-0.62,12.09-2.7,17.36-6.08c1.17-0.75,2.3-1.56,3.39-2.43c0.23,0.02,0.46,0.05,0.56,0.07c0.27,0.05,0.54,0.11,0.81,0.16
				c0.5,0.1,1.03,0.21,1.55,0.28c0.53,0.07,1.06-0.12,1.46-0.51c0.49-0.48,3.72-3.81,3.72-3.81c0.03-0.03,0.03-0.09,0-0.12
				c-0.03-0.03-0.08-0.04-0.11,0L186.12,182.78z M150.22,196.67c-3.02,0-5.57-1.55-5.57-3.38c0-1.83,2.55-3.38,5.57-3.38
				c3.02,0,5.57,1.55,5.57,3.38C155.79,195.12,153.24,196.67,150.22,196.67z"/>
			<path class="st2" d="M180.57,176.69l1.45-1.49c0.03-0.03,0.03-0.09,0-0.12c-0.03-0.03-0.08-0.04-0.11,0c0,0-3.24,3.32-3.71,3.83
				c-0.38,0.41-0.58,0.97-0.53,1.53c0.05,0.55,0.13,1.11,0.22,1.65c0.04,0.28,0.09,0.58,0.13,0.86c0.02,0.15,0.04,0.51,0.06,0.83
				c0.02,0.29,0.03,0.54,0.04,0.65l0.03,0.25l0.19-0.16c0.15-0.13,1.31-1.35,1.53-1.59c0.69-0.73,0.96-1.66,0.8-2.76
				c-0.05-0.38-0.13-0.8-0.22-1.31c-0.13-0.68-0.11-1.31,0.08-1.98L180.57,176.69z"/>
			<path class="st2" d="M192.02,174.58l-1.19,1.74l-0.16,0.08c-0.6,0.29-1.19,0.4-1.84,0.36c-0.49-0.03-0.88-0.05-1.25-0.05
				c-1.05-0.01-1.88,0.41-2.46,1.24c-0.19,0.27-1.17,1.66-1.27,1.83l-0.12,0.22l0.24,0c0.1,0,0.34-0.02,0.61-0.05
				c0.3-0.03,0.65-0.06,0.78-0.06c0.27,0,0.55,0.01,0.82,0.01c0.51,0.01,1.04,0.02,1.57-0.01c0.53-0.03,1.02-0.31,1.36-0.77
				c0.4-0.56,3.04-4.44,3.04-4.44c0.03-0.04,0.02-0.09-0.02-0.12C192.1,174.53,192.05,174.54,192.02,174.58z"/>
			<path class="st2" d="M184.38,171.34l1.18-1.74c0.03-0.04,0.02-0.09-0.02-0.12c-0.04-0.03-0.09-0.02-0.11,0.02
				c0,0-2.65,3.87-3.02,4.45c-0.31,0.48-0.41,1.06-0.27,1.61c0.14,0.54,0.31,1.07,0.48,1.58c0.09,0.27,0.18,0.55,0.27,0.83
				c0.04,0.14,0.12,0.5,0.19,0.81c0.06,0.28,0.12,0.53,0.15,0.63l0.07,0.24l0.16-0.19c0.13-0.15,1.07-1.57,1.25-1.85
				c0.56-0.85,0.67-1.82,0.34-2.87c-0.12-0.37-0.25-0.76-0.43-1.25c-0.24-0.65-0.32-1.27-0.25-1.97L184.38,171.34z"/>
			<path class="st2" d="M195.31,167.15l-0.89,1.94l-0.15,0.11c-0.54,0.4-1.1,0.62-1.75,0.7c-0.48,0.06-0.88,0.12-1.24,0.18
				c-1.03,0.19-1.78,0.75-2.22,1.67c-0.14,0.3-0.88,1.85-0.95,2.04l-0.08,0.24l0.23-0.05c0.1-0.02,0.33-0.09,0.6-0.16
				c0.29-0.08,0.63-0.18,0.76-0.2c0.27-0.05,0.55-0.1,0.81-0.14c0.51-0.08,1.03-0.17,1.54-0.3c0.52-0.13,0.96-0.49,1.21-1.01
				c0.3-0.63,2.27-4.93,2.27-4.93c0.02-0.04,0-0.09-0.04-0.11C195.38,167.09,195.33,167.11,195.31,167.15z"/>
			<path class="st2" d="M186.47,171.42c0.13,0.25,0.27,0.51,0.4,0.77c0.07,0.13,0.2,0.47,0.32,0.76c0.11,0.27,0.2,0.5,0.25,0.6
				l0.11,0.22l0.12-0.21c0.1-0.17,0.79-1.75,0.93-2.05c0.41-0.94,0.36-1.91-0.14-2.89c-0.17-0.34-0.37-0.7-0.63-1.15
				c-0.34-0.59-0.52-1.19-0.57-1.89l-0.01-0.2l0.88-1.93c0.02-0.04,0-0.09-0.04-0.11c-0.04-0.02-0.09,0-0.11,0.04
				c0,0-1.97,4.3-2.25,4.94c-0.23,0.53-0.23,1.12,0,1.63C185.96,170.45,186.21,170.94,186.47,171.42z"/>
			<path class="st2" d="M197.33,159.23l-0.56,2.07l-0.13,0.13c-0.47,0.49-0.98,0.81-1.61,1.01c-0.47,0.15-0.85,0.28-1.19,0.41
				c-0.99,0.37-1.63,1.07-1.92,2.06c-0.09,0.32-0.56,1.98-0.6,2.18l-0.04,0.25l0.22-0.09c0.1-0.04,0.31-0.14,0.56-0.27
				c0.28-0.14,0.59-0.29,0.72-0.34c0.26-0.1,0.52-0.2,0.78-0.29c0.49-0.18,0.99-0.36,1.47-0.58c0.49-0.22,0.86-0.66,1.02-1.22
				c0.2-0.68,1.42-5.28,1.42-5.28c0.01-0.05-0.01-0.09-0.06-0.11C197.39,159.16,197.34,159.18,197.33,159.23z"/>
			<path class="st2" d="M189.84,165.74c0.09,0.12,0.27,0.42,0.44,0.69c0.15,0.24,0.28,0.45,0.34,0.54l0.14,0.2l0.09-0.23
				c0.07-0.19,0.5-1.87,0.58-2.19c0.25-1,0.05-1.95-0.61-2.82c-0.23-0.3-0.48-0.63-0.81-1.01c-0.43-0.52-0.71-1.08-0.87-1.76
				l-0.04-0.19l0.55-2.06c0.01-0.05-0.01-0.09-0.06-0.11c-0.04-0.01-0.09,0.01-0.1,0.06c0,0-1.24,4.6-1.41,5.28
				c-0.14,0.56-0.04,1.15,0.26,1.61c0.3,0.45,0.64,0.89,0.96,1.31C189.49,165.28,189.67,165.51,189.84,165.74z"/>
			<path class="st2" d="M198.11,150.98c-0.04-0.01-0.08,0.03-0.09,0.08l-0.21,2.14l-0.1,0.15c-0.38,0.57-0.84,0.98-1.42,1.29
				c-0.44,0.23-0.79,0.43-1.11,0.62c-0.91,0.55-1.43,1.35-1.55,2.38c-0.04,0.33-0.23,2.05-0.23,2.26l0,0.25l0.2-0.13
				c0.09-0.06,0.28-0.2,0.51-0.37c0.25-0.18,0.53-0.39,0.65-0.47c0.24-0.15,0.48-0.29,0.72-0.43c0.45-0.26,0.91-0.54,1.35-0.84
				c0.45-0.31,0.74-0.81,0.81-1.39c0.08-0.7,0.54-5.46,0.54-5.46C198.19,151.02,198.16,150.98,198.11,150.98z"/>
			<path class="st2" d="M192.26,159.45c0.19,0.21,0.35,0.4,0.43,0.47l0.17,0.17l0.05-0.25c0.04-0.2,0.18-1.93,0.21-2.26
				c0.08-1.03-0.27-1.93-1.06-2.67c-0.27-0.26-0.58-0.53-0.96-0.85c-0.51-0.43-0.88-0.93-1.14-1.57l-0.08-0.18l0.21-2.13
				c0-0.05-0.03-0.09-0.07-0.09s-0.08,0.03-0.09,0.08c0,0-0.47,4.76-0.52,5.46c-0.04,0.58,0.15,1.14,0.52,1.54
				c0.37,0.39,0.77,0.76,1.16,1.12c0.2,0.19,0.42,0.38,0.62,0.58C191.81,158.95,192.05,159.21,192.26,159.45z"/>
			<path class="st2" d="M196.25,146.73c-0.39,0.31-0.71,0.57-0.99,0.81c-0.81,0.71-1.19,1.59-1.14,2.63
				c0.02,0.33,0.11,2.07,0.14,2.27l0.04,0.25l0.18-0.16c0.08-0.07,0.25-0.25,0.44-0.45c0.22-0.23,0.46-0.49,0.57-0.58
				c0.21-0.19,0.43-0.37,0.64-0.55c0.4-0.34,0.81-0.7,1.2-1.08c0.39-0.38,0.6-0.94,0.57-1.52c-0.03-0.71-0.36-5.47-0.36-5.47
				c0-0.05-0.04-0.08-0.09-0.08s-0.08,0.04-0.08,0.09l0.14,2.15l-0.08,0.17C197.15,145.83,196.77,146.31,196.25,146.73z"/>
			<path class="st2" d="M193.76,152.73l0.01-0.25c0.01-0.2-0.14-1.93-0.16-2.27c-0.09-1.03-0.58-1.85-1.48-2.43
				c-0.31-0.2-0.66-0.41-1.09-0.66c-0.58-0.33-1.01-0.76-1.38-1.34l-0.1-0.17l-0.14-2.14c0-0.05-0.04-0.08-0.09-0.08
				c-0.04,0-0.08,0.04-0.08,0.09c0,0,0.32,4.77,0.38,5.47c0.05,0.58,0.33,1.09,0.77,1.42c0.43,0.32,0.89,0.61,1.33,0.88
				c0.23,0.15,0.47,0.3,0.7,0.45c0.12,0.08,0.39,0.3,0.64,0.49c0.22,0.17,0.41,0.32,0.5,0.38L193.76,152.73z"/>
			<path class="st2" d="M194.91,138.94c-0.34,0.38-0.6,0.69-0.84,0.98c-0.68,0.85-0.91,1.79-0.69,2.8c0.07,0.32,0.44,2.01,0.51,2.21
				l0.08,0.24l0.15-0.19c0.07-0.08,0.2-0.29,0.36-0.53c0.17-0.26,0.37-0.56,0.46-0.68c0.18-0.22,0.36-0.45,0.54-0.66
				c0.34-0.41,0.69-0.84,1-1.28c0.32-0.45,0.43-1.03,0.31-1.6c-0.15-0.69-1.25-5.33-1.25-5.33c-0.01-0.05-0.05-0.07-0.1-0.06
				s-0.07,0.06-0.06,0.1l0.49,2.09l-0.05,0.18C195.66,137.89,195.36,138.44,194.91,138.94z"/>
			<path class="st2" d="M189.85,140.29c-0.62-0.22-1.12-0.56-1.58-1.06l-0.13-0.14l-0.49-2.08c-0.01-0.05-0.05-0.07-0.1-0.06
				c-0.04,0.01-0.07,0.06-0.06,0.1c0,0,1.09,4.64,1.27,5.32c0.14,0.56,0.5,1.02,0.99,1.25c0.48,0.23,0.97,0.43,1.45,0.63
				c0.25,0.1,0.51,0.21,0.77,0.32c0.13,0.05,0.44,0.22,0.71,0.36c0.24,0.13,0.46,0.24,0.55,0.29l0.22,0.1l-0.03-0.25
				c-0.03-0.2-0.45-1.88-0.53-2.2c-0.25-1-0.88-1.71-1.85-2.12C190.69,140.6,190.31,140.46,189.85,140.29z"/>
			<path class="st2" d="M192.3,137.61l0.12,0.22l0.12-0.22c0.05-0.09,0.15-0.32,0.27-0.59c0.13-0.29,0.28-0.62,0.34-0.75
				c0.14-0.25,0.28-0.51,0.42-0.75c0.27-0.47,0.54-0.95,0.78-1.45c0.24-0.5,0.26-1.1,0.05-1.63c-0.26-0.65-2.1-5.01-2.1-5.01
				c-0.02-0.04-0.07-0.06-0.11-0.04c-0.04,0.02-0.06,0.07-0.04,0.11l0.83,1.97l-0.02,0.19c-0.06,0.7-0.26,1.29-0.62,1.87
				c-0.27,0.43-0.48,0.79-0.66,1.12c-0.53,0.96-0.61,1.93-0.22,2.88C191.56,135.84,192.21,137.43,192.3,137.61z"/>
			<path class="st2" d="M188,137.08c0.51,0.14,1.03,0.25,1.53,0.35c0.27,0.05,0.54,0.11,0.81,0.17c0.14,0.03,0.47,0.14,0.76,0.23
				c0.26,0.08,0.49,0.16,0.59,0.18l0.23,0.05l-0.07-0.24c-0.06-0.19-0.75-1.77-0.88-2.07c-0.41-0.94-1.14-1.53-2.17-1.75
				c-0.36-0.08-0.75-0.15-1.23-0.22c-0.65-0.1-1.2-0.34-1.73-0.76l-0.15-0.12l-0.82-1.96c-0.02-0.04-0.07-0.06-0.11-0.04
				c-0.04,0.02-0.06,0.07-0.04,0.11c0,0,1.83,4.37,2.12,5.01C187.06,136.55,187.49,136.94,188,137.08z"/>
			<path class="st2" d="M188.87,122.73c0.05,0.7-0.05,1.32-0.31,1.96c-0.19,0.48-0.34,0.87-0.47,1.23
				c-0.37,1.04-0.28,2.01,0.25,2.88c0.17,0.28,1.07,1.73,1.19,1.89l0.15,0.19l0.08-0.24c0.03-0.1,0.1-0.35,0.17-0.63
				c0.08-0.31,0.17-0.66,0.22-0.8c0.09-0.27,0.19-0.55,0.29-0.82c0.18-0.51,0.38-1.04,0.53-1.57c0.16-0.54,0.08-1.13-0.22-1.62
				c-0.36-0.59-2.89-4.55-2.89-4.55c-0.03-0.04-0.08-0.05-0.11-0.02c-0.04,0.03-0.05,0.08-0.02,0.12l1.14,1.78L188.87,122.73z"/>
			<path class="st2" d="M184.24,127.8c-0.65,0.02-1.23-0.12-1.83-0.43l-0.17-0.09l-1.13-1.77c-0.03-0.04-0.08-0.05-0.11-0.02
				c-0.04,0.03-0.05,0.08-0.02,0.12c0,0,2.52,3.96,2.91,4.54c0.32,0.47,0.8,0.77,1.33,0.82c0.52,0.05,1.05,0.05,1.57,0.06
				c0.27,0,0.55,0.01,0.82,0.02c0.14,0.01,0.48,0.05,0.78,0.09c0.27,0.03,0.51,0.06,0.61,0.07l0.24,0.01l-0.11-0.22
				c-0.09-0.18-1.03-1.6-1.21-1.88c-0.56-0.85-1.38-1.29-2.42-1.32C185.13,127.78,184.73,127.78,184.24,127.8z"/>
			<path class="st2" d="M183.73,116.67c0.16,0.68,0.17,1.31,0.02,1.99c-0.11,0.5-0.2,0.92-0.26,1.3c-0.19,1.09,0.05,2.03,0.72,2.79
				c0.21,0.24,1.33,1.51,1.48,1.64l0.18,0.16l0.04-0.25c0.02-0.11,0.04-0.36,0.06-0.65c0.03-0.32,0.06-0.69,0.08-0.83
				c0.05-0.29,0.1-0.58,0.15-0.86c0.1-0.54,0.2-1.09,0.27-1.64c0.07-0.56-0.11-1.13-0.48-1.55c-0.45-0.52-3.59-3.95-3.59-3.95
				c-0.03-0.03-0.08-0.04-0.11,0c-0.03,0.03-0.03,0.09,0,0.12l1.41,1.55L183.73,116.67z"/>
			<path class="st2" d="M178.13,122.43l-0.18-0.06l-1.4-1.54c-0.03-0.03-0.08-0.03-0.11,0c-0.03,0.03-0.03,0.09,0,0.12
				c0,0,3.13,3.44,3.6,3.93c0.39,0.41,0.92,0.61,1.45,0.56c0.52-0.05,1.05-0.14,1.55-0.23c0.27-0.05,0.54-0.09,0.81-0.13
				c0.14-0.02,0.48-0.04,0.78-0.06c0.27-0.02,0.51-0.03,0.61-0.04l0.23-0.03l-0.15-0.2c-0.12-0.16-1.27-1.39-1.5-1.62
				c-0.69-0.73-1.57-1.02-2.6-0.85c-0.36,0.06-0.75,0.13-1.23,0.24C179.35,122.66,178.76,122.63,178.13,122.43z"/>
			<path class="st2" d="M177.6,111.48l0.07,0.17c0.27,0.64,0.38,1.26,0.34,1.95c-0.03,0.52-0.04,0.94-0.05,1.33
				c-0.01,1.11,0.38,1.99,1.16,2.62c0.25,0.2,1.56,1.24,1.73,1.34l0.2,0.13l0-0.25c0-0.11-0.02-0.36-0.04-0.65
				c-0.03-0.32-0.06-0.69-0.06-0.83c0-0.29,0.01-0.59,0.01-0.87c0.01-0.55,0.02-1.11-0.01-1.66c-0.03-0.56-0.29-1.09-0.73-1.44
				c-0.53-0.43-4.18-3.23-4.18-3.23c-0.04-0.03-0.09-0.02-0.11,0.02c-0.03,0.04-0.02,0.09,0.02,0.12L177.6,111.48z"/>
			<path class="st2" d="M175.37,120.43c0.45,0.33,1,0.43,1.51,0.29c0.51-0.15,1.01-0.33,1.49-0.51c0.26-0.09,0.52-0.19,0.78-0.28
				c0.13-0.05,0.47-0.13,0.76-0.2c0.27-0.07,0.5-0.12,0.6-0.16l0.23-0.08l-0.18-0.17c-0.14-0.14-1.48-1.13-1.74-1.32
				c-0.8-0.59-1.71-0.71-2.7-0.36c-0.35,0.12-0.72,0.27-1.17,0.46c-0.61,0.26-1.2,0.34-1.85,0.26l-0.19-0.02l-1.63-1.26
				c-0.04-0.03-0.09-0.02-0.11,0.02c-0.03,0.04-0.02,0.09,0.02,0.12C171.18,117.22,174.82,120.03,175.37,120.43z"/>
			<path class="st2" d="M170.78,107.67l0.1,0.16c0.37,0.58,0.58,1.17,0.66,1.86c0.06,0.51,0.11,0.93,0.17,1.31
				c0.18,1.1,0.7,1.89,1.57,2.36c0.28,0.15,1.74,0.93,1.92,1l0.22,0.09l-0.04-0.25c-0.02-0.11-0.08-0.35-0.15-0.63
				c-0.08-0.31-0.17-0.67-0.19-0.81c-0.05-0.29-0.09-0.58-0.13-0.86c-0.08-0.54-0.16-1.1-0.28-1.64c-0.12-0.55-0.47-1.02-0.95-1.28
				c-0.59-0.32-4.65-2.41-4.65-2.41c-0.04-0.02-0.09,0-0.11,0.04c-0.02,0.04,0,0.09,0.04,0.12L170.78,107.67z"/>
			<path class="st2" d="M172.98,116.12c0.24-0.14,0.48-0.28,0.72-0.42c0.12-0.07,0.44-0.21,0.72-0.34c0.25-0.11,0.47-0.21,0.56-0.26
				l0.21-0.12l-0.2-0.13c-0.16-0.11-1.65-0.84-1.93-0.98c-0.88-0.44-1.8-0.39-2.72,0.14c-0.32,0.19-0.66,0.4-1.08,0.67
				c-0.56,0.36-1.12,0.55-1.78,0.6l-0.19,0.01l-1.82-0.94c-0.04-0.02-0.09,0-0.11,0.04c-0.02,0.04,0,0.09,0.04,0.12
				c0,0,4.05,2.09,4.65,2.39c0.5,0.24,1.06,0.24,1.54,0C172.06,116.66,172.53,116.38,172.98,116.12z"/>
			<path class="st2" d="M129.43,112.26l0.33,0c0.02,0,1.98,0.02,2.58,0.02l0.02,0c0.06-0.01,1.5-0.18,2.13-1.39
				c0.59-1.14,0.99-1.51,1.37-1.87l0.5-0.47l-0.65,0.15c-0.5,0.12-1.02,0.23-2.23,0.06c-1.3-0.19-2.28,0.93-2.32,0.98l-0.01,0.02
				c-0.35,0.52-1.51,2.19-1.52,2.21L129.43,112.26z"/>
			<path class="st2" d="M119.34,180.17c-0.16,1.1,0.11,2.03,0.8,2.76c0.22,0.24,1.38,1.46,1.53,1.59l0.19,0.16l0.03-0.25
				c0.01-0.11,0.03-0.36,0.04-0.65c0.02-0.32,0.04-0.69,0.06-0.83c0.04-0.29,0.08-0.58,0.13-0.86c0.08-0.54,0.17-1.1,0.22-1.65
				c0.05-0.56-0.14-1.12-0.53-1.53c-0.47-0.5-3.71-3.83-3.71-3.83c-0.03-0.03-0.08-0.03-0.11,0c-0.03,0.03-0.03,0.09,0,0.12
				l1.45,1.49l0.05,0.19c0.18,0.67,0.21,1.3,0.08,1.98C119.46,179.37,119.39,179.79,119.34,180.17z"/>
			<path class="st2" d="M114.63,179.89c0.14,0,0.48,0.03,0.78,0.06c0.27,0.03,0.51,0.05,0.61,0.05l0.24,0l-0.12-0.22
				c-0.1-0.18-1.08-1.57-1.27-1.83c-0.59-0.83-1.42-1.24-2.46-1.24c-0.37,0-0.76,0.02-1.25,0.05c-0.65,0.04-1.24-0.07-1.84-0.36
				l-0.16-0.08l-1.19-1.74c-0.03-0.04-0.08-0.05-0.11-0.02c-0.04,0.03-0.04,0.08-0.02,0.12c0,0,2.64,3.88,3.04,4.44
				c0.33,0.46,0.82,0.74,1.36,0.77c0.52,0.03,1.05,0.02,1.57,0.01C114.08,179.89,114.36,179.89,114.63,179.89z"/>
			<path class="st2" d="M114.96,174.75c-0.33,1.05-0.22,2.02,0.34,2.87c0.18,0.27,1.12,1.69,1.25,1.85l0.16,0.19l0.07-0.24
				c0.03-0.1,0.09-0.35,0.15-0.63c0.07-0.31,0.15-0.67,0.19-0.81c0.09-0.28,0.18-0.56,0.27-0.83c0.17-0.51,0.34-1.05,0.48-1.58
				c0.14-0.54,0.04-1.13-0.27-1.61c-0.38-0.58-3.02-4.45-3.02-4.45c-0.03-0.04-0.08-0.05-0.11-0.02c-0.04,0.03-0.04,0.08-0.02,0.12
				l1.18,1.74l0.02,0.2c0.07,0.7-0.01,1.32-0.25,1.97C115.22,173.99,115.08,174.39,114.96,174.75z"/>
			<path class="st2" d="M109.56,173.47c0.27,0.04,0.54,0.09,0.81,0.14c0.14,0.03,0.47,0.12,0.76,0.2c0.27,0.07,0.49,0.14,0.59,0.16
				l0.23,0.05l-0.08-0.24c-0.07-0.19-0.8-1.74-0.95-2.04c-0.44-0.92-1.19-1.49-2.22-1.67c-0.36-0.06-0.75-0.12-1.24-0.18
				c-0.65-0.08-1.21-0.3-1.75-0.7l-0.15-0.11l-0.89-1.94c-0.02-0.04-0.07-0.06-0.11-0.04c-0.04,0.02-0.06,0.07-0.04,0.11
				c0,0,1.96,4.3,2.27,4.93c0.25,0.52,0.69,0.89,1.21,1.01C108.53,173.29,109.06,173.38,109.56,173.47z"/>
			<path class="st2" d="M112.33,173.55l0.12,0.21l0.11-0.22c0.05-0.1,0.14-0.33,0.25-0.6c0.12-0.3,0.26-0.63,0.32-0.76
				c0.13-0.26,0.27-0.52,0.4-0.77c0.25-0.48,0.51-0.97,0.73-1.47c0.23-0.51,0.23-1.11,0-1.63c-0.28-0.64-2.25-4.94-2.25-4.94
				c-0.02-0.04-0.07-0.06-0.11-0.04c-0.04,0.02-0.06,0.07-0.04,0.11l0.88,1.93l-0.01,0.2c-0.04,0.7-0.22,1.3-0.57,1.89
				c-0.26,0.44-0.46,0.81-0.63,1.15c-0.5,0.98-0.55,1.95-0.14,2.89C111.54,171.8,112.23,173.37,112.33,173.55z"/>
			<path class="st2" d="M106.43,166.35c0.26,0.09,0.52,0.19,0.78,0.29c0.13,0.05,0.44,0.2,0.72,0.34c0.25,0.12,0.46,0.23,0.56,0.27
				l0.22,0.09l-0.04-0.25c-0.03-0.2-0.51-1.86-0.6-2.18c-0.28-0.99-0.93-1.68-1.92-2.06c-0.34-0.13-0.72-0.26-1.19-0.41
				c-0.63-0.2-1.14-0.52-1.61-1.01l-0.13-0.13l-0.56-2.07c-0.01-0.05-0.06-0.07-0.1-0.06c-0.04,0.01-0.07,0.06-0.06,0.11
				c0,0,1.23,4.6,1.42,5.28c0.16,0.55,0.54,1,1.02,1.22C105.45,165.99,105.95,166.17,106.43,166.35z"/>
			<path class="st2" d="M109.15,166.94l0.09,0.23l0.14-0.2c0.06-0.09,0.19-0.3,0.34-0.54c0.17-0.27,0.36-0.58,0.44-0.69
				c0.17-0.23,0.35-0.46,0.52-0.68c0.32-0.42,0.66-0.86,0.96-1.31c0.31-0.46,0.4-1.05,0.26-1.61c-0.17-0.68-1.41-5.28-1.41-5.28
				c-0.01-0.05-0.06-0.07-0.1-0.06c-0.04,0.01-0.07,0.06-0.06,0.11l0.55,2.06l-0.04,0.19c-0.16,0.68-0.43,1.24-0.87,1.76
				c-0.32,0.39-0.58,0.71-0.81,1.01c-0.65,0.87-0.86,1.82-0.61,2.82C108.65,165.07,109.08,166.75,109.15,166.94z"/>
			<path class="st2" d="M103.17,157.92c0.44,0.3,0.9,0.58,1.35,0.84c0.24,0.14,0.48,0.28,0.72,0.43c0.12,0.07,0.4,0.28,0.65,0.47
				c0.23,0.17,0.42,0.31,0.51,0.37l0.2,0.13l0-0.25c0-0.2-0.19-1.93-0.23-2.26c-0.12-1.03-0.64-1.83-1.55-2.38
				c-0.32-0.19-0.67-0.39-1.11-0.62c-0.59-0.31-1.04-0.72-1.42-1.29l-0.1-0.15l-0.21-2.14c0-0.05-0.04-0.08-0.09-0.08
				c-0.04,0-0.08,0.05-0.07,0.09c0,0,0.46,4.76,0.54,5.46C102.42,157.11,102.72,157.61,103.17,157.92z"/>
			<path class="st2" d="M107.14,160.09l0.17-0.17c0.08-0.07,0.24-0.26,0.43-0.47c0.21-0.23,0.44-0.5,0.55-0.6
				c0.2-0.19,0.42-0.39,0.62-0.58c0.39-0.36,0.79-0.72,1.16-1.12c0.38-0.4,0.57-0.96,0.52-1.54c-0.05-0.7-0.52-5.46-0.52-5.46
				c0-0.05-0.04-0.08-0.09-0.08c-0.04,0-0.08,0.05-0.07,0.09l0.21,2.13l-0.08,0.18c-0.27,0.64-0.63,1.14-1.14,1.57
				c-0.38,0.32-0.69,0.59-0.96,0.85c-0.79,0.74-1.14,1.63-1.06,2.67c0.03,0.33,0.17,2.06,0.21,2.26L107.14,160.09z"/>
			<path class="st2" d="M103.87,150.93c0.21,0.18,0.43,0.37,0.64,0.55c0.11,0.09,0.35,0.35,0.57,0.58c0.19,0.21,0.36,0.38,0.44,0.45
				l0.18,0.16l0.04-0.25c0.03-0.2,0.12-1.94,0.14-2.27c0.05-1.03-0.33-1.92-1.14-2.63c-0.28-0.25-0.59-0.51-0.99-0.81
				c-0.53-0.41-0.9-0.9-1.19-1.53l-0.08-0.17l0.14-2.15c0-0.05-0.03-0.09-0.08-0.09c-0.04,0-0.08,0.03-0.09,0.08
				c0,0-0.33,4.77-0.36,5.47c-0.03,0.58,0.18,1.13,0.57,1.52C103.06,150.24,103.47,150.59,103.87,150.93z"/>
			<path class="st2" d="M106.23,152.48l0.01,0.25l0.2-0.13c0.09-0.06,0.28-0.21,0.5-0.38c0.24-0.19,0.52-0.41,0.64-0.49
				c0.23-0.15,0.47-0.31,0.7-0.45c0.44-0.28,0.9-0.57,1.33-0.88c0.44-0.32,0.72-0.84,0.77-1.42c0.06-0.7,0.38-5.47,0.38-5.47
				c0-0.05-0.03-0.09-0.08-0.09c-0.04,0-0.08,0.03-0.09,0.08l-0.14,2.14l-0.1,0.17c-0.37,0.58-0.81,1.01-1.38,1.34
				c-0.43,0.25-0.77,0.46-1.09,0.66c-0.89,0.58-1.39,1.4-1.48,2.43C106.37,150.54,106.23,152.27,106.23,152.48z"/>
			<path class="st2" d="M104.52,143.11c0.18,0.22,0.36,0.44,0.54,0.66c0.09,0.11,0.29,0.41,0.46,0.68c0.16,0.24,0.29,0.44,0.36,0.53
				l0.15,0.19l0.08-0.24c0.07-0.19,0.44-1.88,0.51-2.21c0.22-1.01-0.01-1.95-0.69-2.8c-0.24-0.3-0.5-0.61-0.84-0.98
				c-0.45-0.5-0.74-1.05-0.92-1.73l-0.05-0.18l0.49-2.09c0.01-0.05-0.02-0.09-0.06-0.1c-0.04-0.01-0.09,0.02-0.1,0.06
				c0,0-1.1,4.64-1.25,5.33c-0.12,0.57-0.01,1.15,0.31,1.6C103.83,142.27,104.18,142.7,104.52,143.11z"/>
			<path class="st2" d="M108.03,144.56c0.25-0.11,0.52-0.21,0.77-0.32c0.48-0.19,0.98-0.39,1.45-0.63c0.48-0.24,0.84-0.69,0.99-1.25
				c0.18-0.68,1.27-5.32,1.27-5.32c0.01-0.05-0.02-0.09-0.06-0.1c-0.04-0.01-0.09,0.02-0.1,0.06l-0.49,2.08l-0.13,0.14
				c-0.46,0.51-0.96,0.84-1.58,1.06c-0.46,0.16-0.84,0.31-1.18,0.45c-0.98,0.41-1.6,1.12-1.85,2.12c-0.08,0.32-0.5,2-0.53,2.2
				l-0.03,0.25l0.22-0.1c0.09-0.04,0.31-0.16,0.55-0.29C107.6,144.78,107.9,144.62,108.03,144.56z"/>
			<path class="st2" d="M106.43,135.52c0.14,0.25,0.28,0.5,0.42,0.75c0.07,0.13,0.22,0.46,0.34,0.75c0.12,0.26,0.22,0.49,0.27,0.59
				l0.12,0.22l0.12-0.22c0.1-0.18,0.74-1.77,0.86-2.08c0.38-0.95,0.31-1.92-0.22-2.88c-0.18-0.33-0.4-0.69-0.66-1.12
				c-0.36-0.58-0.56-1.17-0.62-1.87l-0.02-0.19l0.83-1.97c0.02-0.04,0-0.09-0.04-0.11c-0.04-0.02-0.09,0-0.11,0.04
				c0,0-1.85,4.36-2.1,5.01c-0.21,0.54-0.19,1.13,0.05,1.63C105.89,134.57,106.17,135.05,106.43,135.52z"/>
			<path class="st2" d="M115.25,130.91c-0.04-0.02-0.09,0-0.11,0.04l-0.82,1.96l-0.15,0.12c-0.53,0.41-1.08,0.65-1.73,0.76
				c-0.48,0.08-0.87,0.15-1.23,0.22c-1.03,0.22-1.76,0.81-2.17,1.75c-0.13,0.3-0.82,1.88-0.88,2.07l-0.07,0.24l0.23-0.05
				c0.1-0.02,0.33-0.1,0.59-0.18c0.29-0.09,0.62-0.2,0.76-0.23c0.27-0.06,0.54-0.12,0.81-0.17c0.5-0.1,1.03-0.21,1.53-0.35
				c0.51-0.14,0.94-0.53,1.18-1.05c0.29-0.64,2.12-5.01,2.12-5.01C115.31,130.98,115.29,130.93,115.25,130.91z"/>
			<path class="st2" d="M109.56,128.4c0.1,0.27,0.2,0.54,0.29,0.82c0.05,0.14,0.14,0.49,0.22,0.8c0.07,0.28,0.13,0.52,0.17,0.63
				l0.08,0.24l0.15-0.19c0.12-0.16,1.02-1.61,1.19-1.89c0.53-0.87,0.62-1.84,0.25-2.88c-0.13-0.36-0.28-0.75-0.47-1.23
				c-0.26-0.64-0.36-1.26-0.31-1.96l0.01-0.19l1.14-1.78c0.03-0.04,0.02-0.09-0.02-0.12c-0.04-0.03-0.09-0.02-0.11,0.02
				c0,0-2.53,3.96-2.89,4.55c-0.3,0.49-0.38,1.08-0.22,1.62C109.18,127.36,109.37,127.89,109.56,128.4z"/>
			<path class="st2" d="M110.88,130.99l-0.11,0.22l0.24-0.01c0.1,0,0.34-0.03,0.61-0.07c0.3-0.04,0.64-0.08,0.78-0.09
				c0.27-0.01,0.55-0.01,0.82-0.02c0.51-0.01,1.04-0.01,1.57-0.06c0.53-0.05,1.01-0.35,1.33-0.82c0.39-0.58,2.91-4.54,2.91-4.54
				c0.03-0.04,0.02-0.09-0.02-0.12c-0.04-0.03-0.09-0.02-0.11,0.02l-1.13,1.77l-0.17,0.09c-0.59,0.31-1.17,0.45-1.83,0.43
				c-0.49-0.01-0.89-0.02-1.25-0.01c-1.05,0.03-1.86,0.47-2.42,1.32C111.9,129.38,110.97,130.81,110.88,130.99z"/>
			<path class="st2" d="M113.8,121.96c0.05,0.28,0.11,0.57,0.15,0.86c0.02,0.14,0.05,0.51,0.08,0.83c0.02,0.29,0.05,0.54,0.06,0.65
				l0.04,0.25l0.18-0.16c0.15-0.13,1.27-1.4,1.48-1.64c0.67-0.76,0.91-1.7,0.72-2.79c-0.07-0.38-0.15-0.79-0.26-1.3
				c-0.15-0.68-0.15-1.31,0.02-1.99l0.04-0.18l1.41-1.55c0.03-0.03,0.03-0.09,0-0.12c-0.03-0.03-0.08-0.03-0.11,0
				c0,0-3.14,3.43-3.59,3.95c-0.37,0.43-0.55,0.99-0.48,1.55C113.6,120.87,113.7,121.43,113.8,121.96z"/>
			<path class="st2" d="M114.68,124.76l-0.15,0.2l0.23,0.03c0.1,0.01,0.34,0.03,0.61,0.04c0.3,0.02,0.65,0.04,0.78,0.06
				c0.27,0.04,0.55,0.09,0.81,0.13c0.51,0.09,1.03,0.18,1.55,0.23c0.53,0.05,1.06-0.15,1.44-0.56c0.47-0.5,3.6-3.93,3.6-3.93
				c0.03-0.03,0.03-0.09,0-0.12c-0.03-0.03-0.08-0.03-0.11,0l-1.4,1.54l-0.18,0.06c-0.63,0.2-1.23,0.22-1.87,0.08
				c-0.48-0.1-0.87-0.18-1.23-0.24c-1.04-0.17-1.91,0.12-2.6,0.85C115.95,123.37,114.8,124.6,114.68,124.76z"/>
			<path class="st2" d="M120.87,117.55c0.78-0.62,1.17-1.5,1.16-2.62c0-0.39-0.02-0.81-0.05-1.33c-0.04-0.69,0.07-1.31,0.34-1.95
				l0.07-0.17l1.64-1.26c0.04-0.03,0.04-0.08,0.02-0.12c-0.03-0.04-0.08-0.05-0.11-0.02c0,0-3.65,2.8-4.18,3.23
				c-0.44,0.35-0.7,0.88-0.73,1.44c-0.03,0.56-0.02,1.12-0.01,1.66c0.01,0.29,0.01,0.58,0.01,0.87c0,0.15-0.03,0.51-0.06,0.83
				c-0.02,0.29-0.04,0.54-0.05,0.65l0,0.25l0.2-0.13C119.31,118.79,120.62,117.75,120.87,117.55z"/>
			<path class="st2" d="M126.91,118.36c-0.66,0.08-1.25-0.01-1.85-0.26c-0.45-0.19-0.83-0.34-1.17-0.46
				c-0.99-0.35-1.9-0.23-2.7,0.36c-0.26,0.19-1.6,1.19-1.74,1.32l-0.18,0.17l0.23,0.08c0.1,0.03,0.33,0.09,0.6,0.16
				c0.3,0.07,0.63,0.16,0.76,0.2c0.26,0.09,0.52,0.19,0.78,0.28c0.49,0.18,0.99,0.37,1.49,0.51c0.51,0.15,1.06,0.04,1.51-0.29
				c0.55-0.4,4.19-3.21,4.19-3.21c0.04-0.03,0.04-0.08,0.02-0.12c-0.03-0.04-0.08-0.05-0.11-0.02l-1.63,1.26L126.91,118.36z"/>
			<path class="st2" d="M126.72,113.36c0.87-0.47,1.4-1.26,1.57-2.36c0.06-0.38,0.12-0.8,0.17-1.31c0.07-0.69,0.28-1.28,0.66-1.86
				l0.1-0.16l1.82-0.94c0.04-0.02,0.06-0.07,0.04-0.12c-0.02-0.04-0.07-0.06-0.11-0.04c0,0-4.05,2.08-4.65,2.41
				c-0.49,0.27-0.83,0.73-0.95,1.28c-0.12,0.54-0.2,1.1-0.28,1.64c-0.04,0.28-0.09,0.58-0.13,0.86c-0.02,0.15-0.11,0.5-0.19,0.81
				c-0.07,0.28-0.13,0.52-0.15,0.63l-0.04,0.25l0.22-0.09C124.98,114.3,126.44,113.51,126.72,113.36z"/>
			<path class="st2" d="M129.95,116.89c0.61-0.29,4.65-2.39,4.65-2.39c0.04-0.02,0.06-0.07,0.04-0.12
				c-0.02-0.04-0.07-0.06-0.11-0.04l-1.82,0.94l-0.19-0.01c-0.66-0.05-1.23-0.24-1.78-0.6c-0.42-0.27-0.76-0.48-1.08-0.67
				c-0.92-0.53-1.84-0.58-2.72-0.14c-0.28,0.14-1.77,0.88-1.93,0.98l-0.2,0.13l0.21,0.12c0.09,0.05,0.31,0.15,0.56,0.26
				c0.28,0.13,0.6,0.27,0.72,0.34c0.24,0.14,0.49,0.28,0.72,0.42c0.45,0.27,0.91,0.54,1.39,0.78
				C128.89,117.14,129.45,117.14,129.95,116.89z"/>
		</g>
	</g>
	<radialGradient id="SVGID_1_" cx="114.4204" cy="126.6939" r="0.8112" gradientUnits="userSpaceOnUse">
		<stop  offset="0.075" style="stop-color:#8BC53F"/>
		<stop  offset="0.743" style="stop-color:#00A551"/>
		<stop  offset="0.838" style="stop-color:#009249"/>
		<stop  offset="1" style="stop-color:#006838"/>
	</radialGradient>
	<path class="st3" d="M115.18,126.75c-0.26-0.47-0.51-0.94-0.74-1.42L115.18,126.75z"/>
	
		<linearGradient id="SVGID_00000055696386345088278590000015186785963338019514_" gradientUnits="userSpaceOnUse" x1="115.0209" y1="126.691" x2="114.4305" y2="124.8785">
		<stop  offset="0.075" style="stop-color:#8BC53F"/>
		<stop  offset="0.743" style="stop-color:#00A551"/>
		<stop  offset="0.838" style="stop-color:#009249"/>
		<stop  offset="1" style="stop-color:#006838"/>
	</linearGradient>
	<path style="fill:url(#SVGID_00000055696386345088278590000015186785963338019514_);" d="M115.18,126.75
		c-0.26-0.47-0.51-0.94-0.74-1.42L115.18,126.75z"/>
	<path class="st5" d="M126.57,151.35c-0.14,1.23-0.59,2.17-1.36,2.82c-0.04,0.03-0.07,0.06-0.11,0.08c-0.26-0.99-0.46-1.99-0.6-3.02
		L126.57,151.35z"/>
	<path class="st5" d="M126.57,148.86l-2.29,0.12c-0.04-0.78-0.05-1.57-0.03-2.36c0.01-0.46,0.04-0.91,0.08-1.36
		c0.02-0.34,0.06-0.69,0.11-1.03c0.01-0.22,0.04-0.45,0.08-0.67c0-0.06,0.01-0.11,0.03-0.17c0.06-0.51,0.15-1.01,0.26-1.5
		c0.91-4.41,2.9-8.39,5.65-11.72c0.02-0.03,0.05-0.05,0.07-0.08c0.29-0.35,0.59-0.69,0.89-1.03c0.03-0.04,0.06-0.08,0.1-0.11
		c0.03-0.03,0.06-0.07,0.09-0.1c0.29-0.31,0.58-0.61,0.88-0.9l0.03-0.03c0.11-0.11,0.22-0.21,0.33-0.31
		c1.15-1.08,2.39-2.05,3.71-2.91c1.85-1.21,3.86-2.2,5.99-2.92c3.02-1.05,6.27-1.57,9.65-1.47c13.33,0.4,24.12,10.34,26.03,23.08
		h-40.38c-0.06,0.03-0.12,0.06-0.18,0.09c0.02-0.03,0.03-0.06,0.04-0.09H125.3c-0.2,0.16-0.39,0.33-0.57,0.51
		c0.01,0.03,0.01,0.07,0,0.11c-0.02,0.1-0.05,0.19-0.07,0.29c-0.05,0.23-0.1,0.45-0.14,0.68c-0.02,0.11-0.03,0.23-0.05,0.34
		c0.33,0.17,0.64,0.37,0.89,0.63C126.07,146.68,126.47,147.65,126.57,148.86z"/>
	<path class="st5" d="M135.09,143.91l-0.1,0.13c-0.17-0.1-0.36-0.17-0.55-0.22C134.66,143.86,134.88,143.9,135.09,143.91z"/>
	<polygon class="st5" points="132.2,147.31 132.2,148.76 135.84,148.76 135.84,150.98 132.2,150.98 132.2,152.61 136.71,152.61 
		136.71,155 129.19,155 129.19,145 136.71,145 136.71,147.31 	"/>
	<path class="st5" d="M142.21,149.94c0,1.15,0.16,1.92,0.48,2.29s0.71,0.55,1.17,0.55c0.37,0,0.69-0.11,0.95-0.34
		c0.26-0.22,0.39-0.53,0.4-0.92h-1.66v-2.12h4.51v5.6h-1.5c-0.12-0.42-0.26-0.77-0.41-1.05c-0.62,0.8-1.53,1.2-2.75,1.2
		c-1.29,0-2.35-0.45-3.18-1.35c-0.83-0.9-1.24-2.12-1.24-3.66c0-1.49,0.4-2.75,1.2-3.77c0.8-1.01,2-1.52,3.59-1.52
		c1.19,0,2.15,0.3,2.88,0.91c0.72,0.6,1.19,1.46,1.41,2.57l-2.97,0.3c-0.15-1.04-0.61-1.56-1.37-1.56
		C142.71,147.07,142.21,148.02,142.21,149.94z"/>
	<path class="st5" d="M155.53,144.85c1.39,0,2.52,0.46,3.4,1.37c0.88,0.92,1.31,2.15,1.31,3.68c0,1.59-0.44,2.86-1.32,3.82
		c-0.88,0.95-2.02,1.43-3.42,1.43c-1.41,0-2.55-0.46-3.44-1.4c-0.89-0.93-1.33-2.18-1.33-3.74c0-1.49,0.42-2.73,1.27-3.7
		C152.85,145.33,154.02,144.85,155.53,144.85z"/>
	<path class="st5" d="M171.06,146.49c0.32,0.5,0.48,1.06,0.48,1.69c0,0.95-0.33,1.72-0.99,2.31c-0.67,0.58-1.55,0.88-2.66,0.88
		h-1.74V155h-3.11v-10h4.27c1.07,0,1.87,0.12,2.43,0.37C170.29,145.61,170.73,145.99,171.06,146.49z"/>
	<path class="st5" d="M176.95,156.61c-1.12,3.13-2.8,6-4.92,8.47c-0.28,0.32-0.56,0.64-0.85,0.95s-0.59,0.61-0.9,0.91
		c-0.46,0.44-0.94,0.87-1.44,1.28c-4.93,4.16-11.34,6.57-18.28,6.36c-11.48-0.34-21.08-7.77-24.74-17.97H176.95z"/>
	<path class="st5" d="M178.52,148.27c-0.05,1.63-0.24,3.22-0.57,4.76h-2.14l-0.6,1.97h-2.49l3.09-10h2.61
		C178.52,146.07,178.55,147.16,178.52,148.27z"/>
	<path class="st2" d="M151.83,180.95v-5.41c-0.53,0.12-1.22,0.22-2.02,0.22c-0.79,0-1.47-0.1-2-0.22c0,1.81,0,3.62,0,5.43
		c-7.51,0.44-13.29,3.18-13.29,6.49h30.84C165.36,184.1,159.45,181.35,151.83,180.95z"/>
	<path class="st0" d="M154.96,183.65h-10.03c-0.27,0-0.5,0.22-0.5,0.5v0.76c0,0.27,0.22,0.5,0.5,0.5h10.03c0.27,0,0.5-0.22,0.5-0.5
		v-0.76C155.45,183.87,155.23,183.65,154.96,183.65z"/>
	<path class="st0" d="M163.72,143.39h-25.87c-0.06,0.03-0.12,0.06-0.18,0.09c0.02-0.03,0.03-0.06,0.04-0.09
		c0.48-1.17,0.41-2.08,0.28-2.62c0.23-0.35,0.65-0.77,0.94-0.99l0.16-0.13l0.06-0.05l0.09-0.27c0.07-0.18,0.13-0.28,0.17-0.32
		l0.57-0.04l0.23-0.69c0.01-0.03,0.04-0.08,0.09-0.12c1.16-0.32,1.86-1.13,1.94-1.23l0.27-0.32l-0.04-0.41
		c-0.01-0.08,0.04-0.2,0.1-0.31c0.68-0.25,1.34-0.7,1.42-0.75l0.23-0.16l0.04-0.1c0.81,0.36,1.6,0.21,2.12-0.04h0.6l0.24-0.15
		c0.71-0.44,1.61-0.11,1.62-0.11l0.2,0.08l0.18,0.07l0.38-0.16c0.28-0.12,0.44-0.1,0.44-0.11l0.29,0.19
		c-0.05,0.14-0.06,0.27-0.07,0.39c0,0.6,0.41,1.04,0.79,1.25l0.4,0.22l0.16-0.06l0.33,0.54l0.75-0.25c0.02-0.01,0.03-0.01,0.05-0.01
		c0.16,0.28,0.35,0.48,0.44,0.55l0.33,0.3l0.44-0.04c0.19-0.02,0.65,0.17,0.93,0.35l0.42,0.27l0.47-0.17c0.69-0.26,0.93-0.72,1-1
		l1.1,0.2l0.03,0.2c0.06-0.01,0.11-0.01,0.16-0.01l-0.36,0.94l2.03-0.64l0.44,0.4l0.59-0.38l0.48,0.91l0.11,0.07
		c0.12,0.16,0.34,0.5,0.49,0.76c0.12,0.26,0.38,0.84,0.79,1.25c0.04,0.34,0.08,0.52,0.09,0.57l0.16,0.72l0.65,0.05L163.72,143.39z"
		/>
	<path class="st0" d="M165.26,160.58c-0.1,0.18-0.63,0.48-1.15,0.6l-0.52,0.08l-0.19,0.52c-0.02,0.02-0.07,0.07-0.11,0.1
		c-0.57,0.26-1.28,0.69-1.35,1.48c-0.02,0.31,0.07,0.59,0.21,0.8c0.11,0.53,0.02,0.7,0.03,0.7l-0.14,0.01
		c-0.77,0.12-1.23,0.7-1.4,1.16l-0.17,0.49l0.22,0.31c-0.02,0.06-0.05,0.13-0.09,0.19l-0.77,0.58l-0.11,0.17
		c-0.61,1.01-1.6,1.84-2.08,1.71c-0.89-0.21-1.69-0.08-2.22,0.07c0.02-0.12,0.02-0.24,0-0.37c-0.05-0.33-0.21-0.61-0.4-0.82
		c-0.1-0.27-0.29-0.68-0.63-1.31l-0.08-0.14l-0.11-0.11c-0.74-0.69-0.61-1.93-0.61-1.94l0.01-0.13c0-0.76-0.75-2.02-1.44-3.04
		c0.04-1.34,0.25-1.52,0.33-1.6c0.13-0.12,0.35-0.31,0.5-0.66c0.23-0.57,0.08-1.28-0.12-1.83l0.01-0.42c0-0.19-0.02-0.38-0.06-0.57
		h11.67l-0.02,0.19l0.2,0.12l-0.47,0.51l0.73,0.67l-0.01,0.8l0.32,0.13C165.24,159.43,165.26,160.25,165.26,160.58z"/>
	<path class="st0" d="M169.4,162.46l0.08-0.17c0.02-0.03,0.04-0.06,0.06-0.1c-0.2,0.1-0.42,0.19-0.65,0.25
		c0.08,0.57,0.07,1.49-0.59,2.17c0,0-0.09,0.15,0,0.48C168.59,164.42,169.04,163.38,169.4,162.46z"/>
	<path class="st0" d="M148.77,150.01l0,0.02C148.77,150.02,148.77,150.01,148.77,150.01C148.77,150,148.77,150,148.77,150.01z"/>
	<path class="st0" d="M124.6,143.69c-0.02,0.13-0.03,0.27-0.04,0.4c-0.02,0.14-0.03,0.27-0.05,0.41c-0.02,0.27-0.04,0.54-0.06,0.81
		c-0.02,0.12-0.02,0.25-0.03,0.37c0.02-0.12,0.03-0.24,0.05-0.36c0.02-0.11,0.03-0.23,0.05-0.34c0.04-0.23,0.09-0.45,0.14-0.68
		c0.02-0.1,0.05-0.19,0.07-0.29c0.01-0.04,0.01-0.08,0-0.11C124.72,143.83,124.66,143.77,124.6,143.69z M154.05,120.31
		c-0.57-0.07-1.15-0.1-1.73-0.12c-0.64-0.02-1.27-0.02-1.9,0.01c-0.05,0-0.1,0-0.15,0.01c-1,0.04-1.99,0.14-2.96,0.29
		c-0.63,0.1-1.25,0.22-1.86,0.36c-0.45,0.1-0.89,0.21-1.33,0.34c-0.19,0.05-0.38,0.1-0.56,0.16c-0.34,0.1-0.66,0.21-0.99,0.33
		c-0.23,0.08-0.47,0.17-0.7,0.26c-0.07,0.01-0.14,0.04-0.2,0.07c-0.68,0.26-1.35,0.55-2,0.87c-0.16,0.07-0.32,0.15-0.48,0.24
		c-0.84,0.42-1.65,0.89-2.43,1.4c-0.87,0.56-1.71,1.18-2.51,1.84c-0.19,0.15-0.39,0.31-0.57,0.48c-0.29,0.24-0.56,0.5-0.83,0.76
		c-0.11,0.1-0.22,0.2-0.33,0.31l-0.03,0.03c-0.3,0.29-0.59,0.59-0.88,0.9c-0.03,0.03-0.06,0.07-0.09,0.1
		c-1.42,1.54-2.67,3.25-3.7,5.1c-0.21,0.36-0.4,0.72-0.58,1.09c-0.87,1.71-1.56,3.54-2.04,5.45c-0.18,0.73-0.34,1.47-0.46,2.22
		c-0.04,0.19-0.07,0.39-0.09,0.58h10.8c0.91-1.4,0.58-2.23,0.56-2.27l-0.15-0.35l0.11-0.4c0.02-0.06,0.04-0.12,0.07-0.17
		c0.03-0.08,0.07-0.16,0.12-0.24c0.35-0.68,0.97-1.27,1.31-1.57c0.27-0.61,0.66-0.98,1.04-1.18c0.04-0.06,0.07-0.11,0.11-0.16
		c0.03-0.05,0.06-0.09,0.1-0.12c0.24-0.3,0.49-0.48,0.56-0.53l0.17-0.11l0.2-0.04c0.36-0.06,0.66-0.26,0.84-0.4
		c0.06-0.36,0.19-0.68,0.34-0.93c0.05-0.09,0.1-0.17,0.15-0.24c0.14-0.19,0.26-0.32,0.29-0.35l0.19-0.2l0.27-0.06
		c0.25-0.07,0.64-0.27,0.93-0.45c0.19-0.32,0.41-0.57,0.64-0.73c0.13-0.11,0.25-0.18,0.37-0.24h0.01c0.05-0.02,0.1-0.04,0.14-0.05
		l0.58-0.18l0.3,0.31l0.13,0.13c0.01,0.02,0.03,0.03,0.06,0.06c0.12,0.11,0.37,0.28,0.68,0.09l0.24-0.15l0.62-0.02
		c0.13-0.06,0.25-0.11,0.38-0.16c0.29-0.1,0.58-0.16,0.86-0.19h0.03c0.6-0.06,1.13,0.03,1.47,0.11c0.17-0.05,0.33-0.08,0.49-0.09
		c0.3-0.05,0.58-0.03,0.82,0.02c0.64-0.27,1.29-0.13,1.63,0.03l0.63,0.3l-0.06,0.68c-0.01,0.13-0.03,0.25-0.06,0.36
		c0.09,0.26,0.12,0.54,0.07,0.79c0.02,0.01,0.04,0.03,0.05,0.04c0.64,0,1.18,0.27,1.26,0.31l0.51,0.29v0.27
		c0.13,0.03,0.26,0.06,0.39,0.1c0.48-0.75,1.31-1.03,1.97-1.04c0.56,0.02,1.04,0.19,1.29,0.55l2.32,0.42
		c0.31-0.1,0.6-0.17,0.72-0.19l0.34-0.07l0.28,0.14l0.09-0.14l0.14,0.24c0.23,0.06,0.36,0.02,0.38,0.01l0.88-0.42l0.4,0.9
		c0.66,1.33,0.26,2.3,0.03,2.69c0.1,0.2,0.18,0.32,0.24,0.4l0.57,0.05l0.05,0.87c0,0.08,0.01,0.16,0.01,0.23
		c0.34,0.23,0.58,0.51,0.67,0.63l0.15,0.21l0.16,1.15l0.57,0.36l0.12,0.29c0.06,0.15,0.13,0.29,0.18,0.41h11.9
		C176.59,131.15,166.61,121.47,154.05,120.31z M134.44,143.82c0.19,0.05,0.38,0.12,0.55,0.22l0.1-0.13
		C134.88,143.9,134.66,143.86,134.44,143.82z M166.84,156.61c0.04,0.27,0,0.52-0.07,0.73c0.04,0.09,0.07,0.19,0.09,0.29
		c0.38,0.3,0.5,0.64,0.52,0.91c0.03,0.27-0.03,0.51-0.14,0.72c0.01,0.55,0.03,1.43,0.03,1.43v0.1l-0.02,0.09
		c-0.01,0.1-0.04,0.2-0.07,0.29c0.29-0.37,0.72-0.6,1.14-0.64c0.68-0.14,1.18-0.83,1.34-1.08c0.08-0.23,0.22-0.42,0.42-0.57
		c0,0,0.01-0.01,0.02-0.01l0.15-1.53l0.58,1.31c0.12,0.01,0.22,0.02,0.27,0.03l0.41,0.1l0.22,0.35c0.89,1.46,0.44,2.63,0.04,3.1
		l-0.14,0.15c-0.15,0.41-0.31,0.73-0.4,0.88c-0.61,1.55-1.42,3.33-1.45,3.4l-0.32,0.71l-0.67-0.12c-0.12,0.03-0.35,0.13-0.48,0.21
		l-1.24,0.71l-0.19-1.09l-0.11-0.06l-0.09-0.11c-0.42-0.47-0.47-1.08-0.38-1.56c-0.24-1.32,0.49-2.07,0.58-2.16
		c0.05-0.05,0.06-0.42-0.02-0.69l-0.05-0.17l0.01-0.18c0.01-0.14,0.03-0.27,0.06-0.4c-0.5,0.71-1.37,1.09-1.91,1.26
		c-0.25,0.32-0.55,0.53-0.66,0.59l-0.12,0.07c-0.04,0.01-0.07,0.03-0.09,0.04c0.22,0.99,0.1,1.78-0.34,2.36
		c-0.3,0.39-0.69,0.61-1.05,0.71c-0.01,0.58-0.27,1.14-0.58,1.55l-0.2,0.19l-0.6,0.45c-0.77,1.18-2.41,2.88-4.15,2.45
		c-0.8-0.18-1.51,0.17-1.51,0.17l-0.25,0.13l-0.29-0.02c-1.15-0.08-1.77-1.03-1.86-1.87l-0.03-0.29l-0.1-0.07v-0.43
		c-0.07-0.17-0.25-0.55-0.44-0.91c-1.18-1.23-1.14-2.95-1.11-3.41c-0.06-0.27-0.64-1.28-1.25-2.14l-0.19-0.27v-0.32
		c0.03-2.04,0.37-2.79,0.95-3.33c-0.05-0.21-0.18-0.57-0.33-0.84l-0.37-0.7l0.39-0.35c-0.02-0.05-0.04-0.1-0.07-0.16h-24.73
		c3.68,10.13,13.25,17.51,24.69,17.85c6.89,0.21,13.25-2.16,18.16-6.24c0.5-0.41,0.98-0.84,1.44-1.28c0.31-0.3,0.61-0.6,0.9-0.91
		s0.57-0.63,0.85-0.95c2.15-2.47,3.85-5.33,4.99-8.47H166.84z M137.18,136.96c-0.19-0.01-0.38-0.01-0.57-0.01
		c-0.59-0.01-1.19,0-1.78,0.05c-0.1,0.01-0.19,0.02-0.29,0.03c-0.03,0.01-0.06,0.03-0.09,0.04c-0.01-0.01-0.01-0.02-0.02-0.03
		c-0.17,0.02-0.35,0.04-0.52,0.06c-0.4,0.07-0.79,0.14-1.18,0.25c-0.76,0.2-1.51,0.49-2.2,0.87c-0.32,0.18-0.63,0.38-0.93,0.61
		c-0.34,0.26-0.55,0.6-0.78,0.96c-0.23,0.34-0.44,0.69-0.65,1.05c-0.2,0.33-0.39,0.67-0.57,1.02c-0.06,0.1-0.11,0.21-0.16,0.32
		c-0.21,0.4-0.4,0.8-0.58,1.21h2.01c0.22-0.07,0.43-0.14,0.65-0.19c-0.02-0.01-0.03-0.03-0.04-0.04c0.63-0.52,1.31-1,2.02-1.42
		c0.87-0.52,1.79-0.94,2.74-1.25c0.04-0.02,0.07-0.03,0.11-0.04c0.59-0.19,1.19-0.37,1.81-0.49c0.35-0.68,0.97-1.27,1.31-1.57
		c0.27-0.61,0.66-0.98,1.04-1.18c0.04-0.06,0.07-0.11,0.11-0.16C138.14,137.01,137.66,136.98,137.18,136.96z M140.47,134.99
		c-0.5,0.11-0.99,0.24-1.47,0.37c-1.23,0.34-2.43,0.75-3.61,1.27c0.57,0.01,1.13,0.04,1.69,0.09c0.55,0.05,1.1,0.13,1.64,0.21
		c0.24-0.3,0.49-0.48,0.56-0.53l0.17-0.11l0.2-0.04c0.36-0.06,0.66-0.26,0.84-0.4c0.06-0.36,0.19-0.68,0.34-0.93
		C140.71,134.94,140.59,134.96,140.47,134.99z M140.82,132.44c-0.48-0.13-0.94-0.28-1.4-0.47c-0.18-0.08-0.35-0.15-0.53-0.23
		c-0.2-0.1-0.29-0.06-0.5,0.01c-0.36,0.11-0.72,0.23-1.07,0.37c-0.72,0.28-1.42,0.62-2.08,1.01c-0.13,0.08-0.28,0.18-0.44,0.29
		c-0.17,0.11-0.34,0.24-0.5,0.37c-0.01,0-0.02,0.01-0.02,0.01c-0.04,0.01-0.08,0.03-0.12,0.05c-1.36,0.64-2.66,1.36-3.87,2.25
		c0.58-0.12,1.16-0.2,1.75-0.26c-0.07,0.05-0.14,0.12-0.21,0.21c-0.11,0.1-0.22,0.21-0.33,0.33c-0.41,0.45-0.81,0.9-1.19,1.38
		c1.17-0.62,2.47-0.96,3.78-1.08c0.17-0.01,0.43-0.08,0.59-0.15c0.09-0.04,0.18-0.08,0.27-0.12c0.32-0.15,0.64-0.29,0.97-0.42
		c0.6-0.23,1.21-0.44,1.82-0.63c0.52-0.16,1.04-0.29,1.56-0.4c0.56-0.12,1.12-0.21,1.68-0.28c0.14-0.19,0.26-0.32,0.29-0.35
		l0.19-0.2l0.27-0.06c0.25-0.07,0.64-0.27,0.93-0.45c0.19-0.32,0.41-0.57,0.64-0.73C142.46,132.81,141.63,132.67,140.82,132.44z
		 M144.89,132.92c0.12,0.11,0.37,0.28,0.68,0.09l0.24-0.15l0.62-0.02c0.13-0.06,0.25-0.11,0.38-0.16
		C146.18,132.8,145.54,132.89,144.89,132.92z"/>
	<path class="st2" d="M124.73,143.9c0.01,0.03,0.01,0.07,0,0.11c-0.02,0.1-0.05,0.19-0.07,0.29c-0.05,0.23-0.1,0.45-0.14,0.68
		c-0.02,0.11-0.03,0.23-0.05,0.34c-0.02,0.12-0.03,0.24-0.05,0.36c0.01-0.12,0.01-0.25,0.03-0.37c0.02-0.27,0.04-0.54,0.06-0.81
		c0.02-0.14,0.03-0.27,0.05-0.41c0.01-0.13,0.02-0.27,0.04-0.4C124.66,143.77,124.72,143.83,124.73,143.9z"/>
	<path class="st2" d="M125.26,156.61c2.54,6.31,7.48,11.81,7.69,12.04c-5.16-3.71-8.07-8-9.65-12.04H125.26z"/>
	<path class="st2" d="M142.74,124.63c-0.18,0.77-0.57,1.51-1.14,2.07c0.27,0.06,0.54,0.12,0.8,0.19c0.11,0.02,0.31,0.02,0.33,0.13
		c0,0.11,0.01,0.21,0.01,0.32c-0.01,0.38-0.11,0.77-0.28,1.13c-0.33,0.74-0.95,1.34-1.73,1.61c0.19-0.05,0.36,0,0.51,0.1
		c0.19,0.14,0.32,0.38,0.34,0.6c0.04,0.47-0.21,0.9-0.47,1.27c-0.02,0.03-0.04,0.05-0.06,0.08c-0.07,0.11-0.15,0.21-0.23,0.31
		c-0.59,0.72-1.35,1.27-2.21,1.61c0.36,0.08,0.7,0.17,1.05,0.26c-0.1,0.23-0.22,0.44-0.36,0.65c-0.08,0.14-0.18,0.27-0.3,0.4
		c-0.5,0.61-1.17,1.09-1.92,1.36c-0.19,0.08-0.39,0.14-0.6,0.18c0.05,0.01,0.09,0.03,0.13,0.05c0.3,0.15,0.46,0.52,0.38,0.84
		c-0.12,0.45-0.53,0.76-0.9,1.02c-0.67,0.48-1.49,0.89-2.34,0.75c0.3,0.13,0.59,0.24,0.89,0.36c-0.12,0.2-0.25,0.39-0.4,0.57
		c-0.22,0.26-0.46,0.5-0.73,0.7c-0.05,0.04-0.09,0.07-0.13,0.11c-0.61,0.42-1.31,0.71-2.04,0.81l0.12-0.26
		c0.01-0.04,0.03-0.07,0.04-0.11c0.02-0.04,0.03-0.08,0.04-0.12l-4.19,0.91c1.11-0.55,2.32-0.93,3.46-1.32
		c-1.15,0.26-2.28,0.53-3.37,0.97c-0.07,0.02-0.13,0.04-0.2,0.07c0.11-0.13,0.23-0.26,0.36-0.39c0.85-0.93,1.82-1.74,2.89-2.41
		c0.32-0.2,0.64-0.38,0.97-0.55c0.77-0.39,1.57-0.7,2.4-0.99c-0.59,0.15-1.16,0.32-1.73,0.52c-0.21,0.08-0.41,0.16-0.62,0.26
		c-0.48,0.21-0.94,0.46-1.39,0.72c-0.69,0.4-1.35,0.88-1.95,1.43c-0.56,0.5-1.08,1.07-1.55,1.66c0.01,0,0.02,0.02,0.04,0.02
		c-0.18,0.08-0.34,0.18-0.5,0.27c-0.3,0.18-0.59,0.38-0.86,0.6c-0.2,0.16-0.39,0.33-0.57,0.51c-0.06,0.06-0.12,0.13-0.17,0.19
		c-0.05,0.04-0.09,0.09-0.12,0.14c-0.06,0.06-0.11,0.12-0.16,0.18c0.04-0.19,0.06-0.38,0.1-0.57c0.02-0.13,0.05-0.26,0.07-0.39
		c0.01-0.02,0.01-0.04,0.01-0.06c0.02-0.08,0.04-0.16,0.05-0.24c0.09-0.42,0.19-0.84,0.3-1.26c0.12-0.44,0.25-0.87,0.39-1.3
		c0.09-0.24,0.18-0.49,0.27-0.73c0.13-0.34,0.24-0.66,0.47-0.93c0.21-0.24,0.43-0.46,0.65-0.66c0.5-0.44,1.06-0.81,1.65-1.11
		c0.3-0.16,0.61-0.28,0.92-0.41c0.14-0.05,0.28-0.1,0.42-0.15c0.01,0.01,0.01,0.02,0.02,0.03c0.02-0.02,0.04-0.04,0.07-0.05
		c0.08-0.03,0.15-0.05,0.23-0.08c0.63-0.19,1.27-0.33,1.91-0.45c0.01,0,0.01,0,0.02,0c0.39-0.07,0.79-0.13,1.18-0.18
		c0.53-0.08,1.07-0.14,1.59-0.2c-0.51,0.02-1.02,0.04-1.53,0.08c-0.34,0.02-0.69,0.05-1.03,0.09c-0.59,0.06-1.17,0.14-1.75,0.26
		c1.21-0.89,2.51-1.61,3.87-2.25c0.04-0.02,0.08-0.04,0.12-0.05c0,0,0.01-0.01,0.02-0.01c0.04-0.02,0.09-0.04,0.14-0.06
		c1.02-0.46,2.1-0.77,3.18-1.06c-0.96,0.19-1.91,0.43-2.82,0.75c-0.1,0.02-0.19,0.06-0.28,0.09c-0.87,0.3-1.72,0.67-2.53,1.13
		c-0.47,0.26-0.93,0.54-1.38,0.84c-0.25,0.17-0.48,0.34-0.72,0.52c-0.07,0.05-0.13,0.09-0.2,0.14c-0.12,0.09-0.32,0.19-0.46,0.23
		c-1.05,0.33-2.05,0.84-2.9,1.56c0.23-0.46,0.48-0.9,0.73-1.34c0.37-0.61,0.77-1.2,1.18-1.78c0.11-0.16,0.24-0.31,0.35-0.48
		c0.24-0.31,0.66-0.8,0.95-1.07c0.47-0.44,0.99-0.84,1.53-1.2c0.26-0.17,0.53-0.34,0.81-0.49c0.16-0.1,0.22-0.14,0.4-0.1
		c0.17,0.03,0.32,0.06,0.48,0.1c1.11,0.19,2.23,0.2,3.34,0.06c0.16-0.02,0.32-0.05,0.47-0.07c0.29-0.05,0.57-0.11,0.84-0.19
		c0.52-0.14,1.03-0.33,1.52-0.54c0.23-0.09,0.45-0.2,0.68-0.31h0.02c0.01-0.01,0.02-0.02,0.03-0.02c-0.02,0.01-0.03,0.01-0.05,0.02
		c-0.79,0.3-1.57,0.56-2.39,0.73c-0.23,0.04-0.45,0.07-0.68,0.1c-0.05,0-0.11,0.02-0.17,0.01h-0.01c-1.27,0.13-2.52,0.1-3.77-0.16
		c1.43-0.64,2.95-1.1,4.36-1.8c1.13-0.56,2.08-1.3,2.82-2.32c-0.47,0.55-0.97,1.03-1.58,1.42c-0.8,0.51-1.67,0.87-2.57,1.19
		c-0.94,0.33-1.9,0.62-2.83,1c-0.89,0.38-1.74,0.83-2.53,1.39c0.81-1.08,1.6-2.15,2.37-3.26c0.38-0.53,0.75-1.07,1.11-1.61
		c0.04-0.06,0.09-0.12,0.12-0.19c0.11-0.17,0.34-0.42,0.5-0.55c0.25-0.22,0.51-0.43,0.77-0.64c0.13-0.1,0.26-0.21,0.39-0.3
		c0.11-0.09,0.25-0.26,0.39-0.23c0.31,0.04,0.63,0.06,0.93,0.06c0.61,0.01,1.21-0.07,1.78-0.24c1.06-0.3,1.99-0.84,2.8-1.59
		c-1.51,1.12-3.35,1.69-5.24,1.48c0.13-0.1,0.25-0.2,0.38-0.31c0.07-0.05,0.13-0.11,0.2-0.17c0.97-0.81,1.88-1.72,2.43-2.86
		c0.26-0.55,0.43-1.12,0.48-1.7c0.05-0.53,0-1.06-0.16-1.6c0.12,0.54,0.13,1.1,0.04,1.64c-0.13,0.77-0.45,1.5-0.92,2.15
		c-1,1.41-2.49,2.37-3.85,3.4c0.93-1.53,1.79-3.12,2.39-4.79c0.09-0.22,0.16-0.43,0.22-0.64c0.51-1.61,0.89-3.43,0.52-5.11
		c0.09,0.5-0.22,1.13-0.38,1.58c-0.26,0.75-0.47,1.5-0.73,2.24c-0.32,0.87-0.68,1.72-1.08,2.56c-0.37,0.79-0.79,1.56-1.23,2.31
		c0.05-0.6,0.11-1.2,0.2-1.8c0.16-1.17,0.42-2.33,0.71-3.48c-0.5,1.21-0.9,2.44-1.14,3.71c-0.1,0.52-0.18,1.04-0.23,1.57
		c-0.03,0.29-0.04,0.57-0.06,0.86c-0.13,0.22-0.27,0.43-0.41,0.65c-0.28,0.42-0.57,0.84-0.86,1.26c-0.62,0.85-1.27,1.68-1.96,2.49
		c0.05-0.59,0.09-1.17,0.15-1.74c0.02-0.18,0.13-0.45,0.25-0.59c0.13-0.19,0.26-0.36,0.38-0.55c0.18-0.25,0.35-0.52,0.5-0.79
		c0.42-0.76,0.73-1.55,0.96-2.37c0.07-0.28,0.14-0.55,0.2-0.83c-0.11,0.32-0.23,0.62-0.35,0.92c-0.47,1.16-1.06,2.24-1.82,3.25
		c0.09-0.73,0.2-1.46,0.34-2.18c0.03-0.27,0.08-0.53,0.13-0.79c0.15-0.75,0.34-1.48,0.5-2.22c-0.17,0.52-0.35,1.06-0.52,1.59
		c-0.18,0.56-0.33,1.13-0.46,1.7c-0.05,0.17-0.09,0.34-0.13,0.52c-0.37,1.52-0.49,3.1-0.64,4.65c0.01,0,0.02,0.01,0.03,0.01
		c-1.22,1.42-2.34,2.92-3.36,4.49c-0.02-1.66,0.12-3.29,0.39-4.92c0.06-0.41,0.15-0.81,0.24-1.22c0.22-0.97,0.51-1.94,0.82-2.89
		c-0.47,1.1-0.89,2.23-1.2,3.39c-0.13,0.46-0.24,0.93-0.33,1.41c-0.09-0.22-0.16-0.43-0.22-0.64c-0.21-0.77-0.27-1.55-0.22-2.36
		c-0.22,0.88-0.25,1.78,0.01,2.67c0,0.01,0,0.01,0,0.02c0.07,0.22,0.14,0.45,0.24,0.67c0.06,0.13,0.08,0.28,0.06,0.41
		c-0.02,0.14-0.04,0.28-0.06,0.41c-0.06,0.49-0.12,0.98-0.15,1.48c-0.03,0.55-0.05,1.12-0.05,1.67c0,0.14,0.01,0.28,0.01,0.43
		c0.01,0.18-0.04,0.25-0.13,0.4c-0.15,0.24-0.3,0.48-0.45,0.73c-0.56,0.97-1.1,1.96-1.57,2.98c-0.24-0.78-0.44-1.58-0.55-2.4
		c0.06-0.01,0.83-1.4,0.91-1.56c0.26-0.55,0.49-1.12,0.66-1.71c0.26-0.87,0.42-1.72,0.5-2.61c0.02-0.15,0.04-0.3,0.05-0.45
		c-0.03,0.18-0.07,0.36-0.11,0.55c-0.14,0.73-0.31,1.46-0.56,2.15c-0.39,1.11-0.88,2.16-1.51,3.15c-0.01-0.15-0.03-0.31-0.05-0.46
		c-0.12-1.32-0.03-2.63,0.16-3.95c-0.22,0.84-0.4,1.66-0.46,2.53c-0.06,0.8-0.06,1.61,0.02,2.41c0.03,0.24,0.07,0.48,0.1,0.73
		c0.09,0.54,0.21,1.09,0.36,1.62c0.04,0.14,0.08,0.27,0.13,0.4c0.02,0.08,0.05,0.17,0.07,0.25c-0.02,0.04-0.04,0.09-0.06,0.15
		c-0.1,0.24-0.2,0.49-0.29,0.75c-0.35,1.01-0.62,2.06-0.73,3.13c-0.09-0.1-0.18-0.2-0.26-0.3c-0.12-0.14-0.22-0.28-0.32-0.42
		c-0.08-0.12-0.15-0.25-0.23-0.38c-0.04-0.1-0.07-0.11-0.03-0.21c0.03-0.08,0.06-0.16,0.08-0.24c0.2-0.6,0.36-1.22,0.44-1.84
		c0.14-1.1,0.07-2.16-0.12-3.24c0.1,1.71-0.06,3.36-0.63,4.98c-0.47-1.1-0.63-2.31-0.84-3.47c0.04,1.29,0.08,2.65,0.59,3.86
		c0.18,0.46,0.42,0.9,0.74,1.29c0.05,0.07,0.1,0.14,0.16,0.2l-2.15,0.47c-0.02-0.26-0.03-0.49-0.03-0.67c-0.01-0.35,0-0.55,0-0.55
		c-0.39-0.5-0.86-1.09-0.98-1.72c-0.06-0.27-0.05-0.6,0.19-0.78c0.18-0.14,0.48-0.19,0.68-0.05c-0.34-0.55-0.53-1.18-0.57-1.82
		c-0.02-0.33,0-0.67,0.07-0.99c0.02-0.11,0.01-0.2,0.12-0.2c0.08,0,0.16,0.01,0.23,0.02c0.18,0.03,0.36,0.09,0.51,0.17
		c-0.21-0.81-0.29-1.66-0.26-2.51c0.02-0.38,0-0.89,0.22-1.22c0.14-0.22,0.58-0.36,0.7-0.05c-0.05-0.65-0.07-1.33,0.01-1.99
		c0.02-0.28,0.11-0.62,0.41-0.72c0.19-0.06,0.44-0.01,0.51,0.19c0.38-0.83,0.11-1.8,0.46-2.66c0.14-0.35,0.4-0.65,0.77-0.77
		c0.32-0.11,0.7-0.08,0.93,0.18c0.02-0.73,0.3-1.45,0.74-2.04c0.08-0.1,0.17-0.21,0.27-0.31c0.33-0.34,0.91-0.12,0.94,0.33
		c0.14-0.43,0.28-0.87,0.47-1.27c0.14-0.36,0.3-0.76,0.57-1.04c0.21-0.22,0.51-0.35,0.8-0.22c0.18,0.08,0.35,0.26,0.32,0.46
		c0.17-0.88,0.57-1.71,1.13-2.41c0.23-0.28,0.51-0.61,0.9-0.65c0.28-0.03,0.63,0.13,0.66,0.43c0.2-0.39,0.41-0.8,0.61-1.2
		c0.18-0.34,0.34-0.71,0.55-1.03c0.16-0.25,0.41-0.48,0.72-0.45c0.23,0.03,0.47,0.19,0.45,0.44c0.2-0.48,0.39-0.96,0.6-1.44
		c0.18-0.44,0.33-0.9,0.56-1.32c0.16-0.3,0.43-0.61,0.8-0.55c0.23,0.03,0.48,0.21,0.46,0.46c0.14-0.79,0.35-1.58,0.61-2.34
		c0.07-0.22,0.15-0.42,0.22-0.63c0.05-0.08,0.05-0.25,0.16-0.2c0.06,0.02,0.12,0.05,0.17,0.08c0.26,0.18,0.45,0.47,0.48,0.79
		c0-0.03,0.02-0.05,0.03-0.07c0.02-0.05,0.04-0.11,0.06-0.17c0.02-0.02,0.02-0.03,0.03-0.05c0.02-0.05,0.03-0.09,0.05-0.12
		c0-0.02,0.01-0.04,0.02-0.06v-0.01c0-0.01,0-0.01,0-0.02c0.34-0.95,0.45-1.97,0.31-2.97c0.32,0.97,1.2,1.56,1.82,2.32
		c0.55,0.65,1.02,1.69,0.49,2.48c0.28-0.22,0.69-0.12,0.95,0.09c0.29,0.25,0.4,0.66,0.46,1.03c0.14,0.86,0.06,1.76-0.23,2.59
		c0.34-0.17,0.77,0.02,1,0.3c0.06,0.09,0.1,0.17,0.15,0.26c0.11,0.3,0.13,0.63,0.13,0.93c-0.01,0.46-0.09,0.92-0.22,1.35
		c0,0.03-0.01,0.06-0.02,0.09c-0.15,0.48-0.37,0.93-0.64,1.35c0.25-0.03,0.49-0.06,0.74-0.09c0.16-0.02,0.16-0.04,0.18,0.12
		c0.01,0.09,0.02,0.19,0.03,0.28C142.88,123.84,142.83,124.24,142.74,124.63z"/>
	<g>
		<path class="st2" d="M90.71,176.68l-3.83,1.5l-0.4-1.02c0.25-0.19,0.45-0.38,0.61-0.56c-0.71-0.21-1.23-0.73-1.56-1.56
			c-0.35-0.88-0.32-1.72,0.07-2.53c0.39-0.81,1.11-1.42,2.16-1.83c1.02-0.4,1.98-0.46,2.9-0.19c0.91,0.28,1.58,0.96,2,2.04
			c0.32,0.81,0.37,1.55,0.15,2.21c-0.22,0.66-0.68,1.21-1.38,1.66l-1-1.95c0.67-0.38,0.9-0.83,0.7-1.35
			c-0.27-0.69-1.06-0.77-2.36-0.26c-0.79,0.31-1.27,0.62-1.43,0.94s-0.19,0.63-0.06,0.95c0.1,0.25,0.26,0.44,0.48,0.56
			s0.47,0.13,0.74,0.03l-0.44-1.13l1.45-0.57L90.71,176.68z"/>
		<path class="st2" d="M89.09,182.76c-0.49-0.91-0.59-1.81-0.29-2.71s0.94-1.62,1.95-2.16c0.96-0.52,1.91-0.68,2.83-0.47
			c0.92,0.21,1.65,0.8,2.17,1.77c0.48,0.9,0.58,1.79,0.29,2.68c-0.29,0.88-0.93,1.59-1.92,2.13c-1.02,0.55-2,0.71-2.92,0.47
			C90.28,184.23,89.58,183.66,89.09,182.76z M90.55,181.96c0.18,0.33,0.46,0.5,0.83,0.49c0.37-0.01,0.94-0.22,1.72-0.64
			c1.12-0.6,1.52-1.21,1.2-1.81c-0.35-0.65-1.16-0.63-2.44,0.06C90.65,180.7,90.22,181.34,90.55,181.96z"/>
		<path class="st2" d="M101.26,188l-7.32,2.31l-1.31-1.88l4.67-6.14l1.35,1.95l-2.62,3.23c-0.15,0.2-0.3,0.39-0.45,0.57l4.63-1.56
			L101.26,188z"/>
		<path class="st2" d="M101.02,196.23l-1.32,1.15l-3.61-4.17l5.55-4.8l3.61,4.17l-1.28,1.11l-2.16-2.5l-0.8,0.7l1.75,2.02
			l-1.23,1.06l-1.75-2.02l-0.91,0.78L101.02,196.23z"/>
		<path class="st2" d="M105.58,202.95l-1.83-1.7l1.12-2.78l-0.52-0.48l-1.91,2.06l-1.65-1.53l4.98-5.38l2.81,2.6
			c0.62,0.57,0.97,1.17,1.04,1.77c0.07,0.61-0.11,1.15-0.55,1.62c-0.29,0.31-0.6,0.53-0.95,0.65c-0.35,0.12-0.8,0.09-1.35-0.08
			L105.58,202.95z M105.41,196.84l0.71,0.65c0.21,0.19,0.41,0.3,0.62,0.33c0.21,0.03,0.39-0.04,0.54-0.21
			c0.32-0.34,0.27-0.71-0.16-1.1l-0.76-0.7L105.41,196.84z"/>
		<path class="st2" d="M112.04,207.76l-1.48-1.08l0.28-3.8c0.04-0.49,0.12-1.05,0.26-1.68c-0.18,0.45-0.37,0.81-0.56,1.08
			l-2.08,2.87l-1.48-1.07l4.3-5.93l1.72,1.25l-0.19,3.18c-0.04,0.63-0.1,1.16-0.2,1.59c0.27-0.57,0.6-1.13,0.99-1.66l1.27-1.76
			l1.48,1.08L112.04,207.76z"/>
		<path class="st2" d="M117.25,210.8l0.35-1.46l-1.71-0.96l-1.09,1.04l-1.59-0.9l5.56-5.28l2.07,1.17l-1.59,7.52L117.25,210.8z
			 M117,207.16l1.03,0.58l0.52-2.14L117,207.16z"/>
		<path class="st2" d="M126.29,214.93l-1.69-0.71l-0.6-3.76c-0.08-0.48-0.12-1.05-0.14-1.7c-0.07,0.48-0.17,0.87-0.3,1.18
			l-1.37,3.28l-1.68-0.71l2.83-6.76l1.96,0.82l0.54,3.14c0.11,0.62,0.17,1.16,0.17,1.6c0.14-0.62,0.33-1.24,0.58-1.84l0.84-2
			l1.69,0.71L126.29,214.93z"/>
		<path class="st2" d="M132.79,213.99l1.94,0.69c-0.34,0.84-0.85,1.41-1.53,1.71s-1.41,0.34-2.21,0.11
			c-0.96-0.28-1.64-0.82-2.04-1.62c-0.41-0.8-0.45-1.76-0.13-2.88c0.32-1.1,0.85-1.92,1.61-2.43c0.75-0.52,1.63-0.63,2.63-0.34
			c0.93,0.27,1.57,0.73,1.93,1.39c0.35,0.66,0.44,1.43,0.26,2.3l-2.05-0.47c0.14-0.47,0.14-0.84,0.02-1.1s-0.3-0.43-0.55-0.5
			c-0.68-0.2-1.22,0.39-1.61,1.76c-0.22,0.77-0.28,1.31-0.18,1.64c0.1,0.33,0.31,0.54,0.63,0.63
			C132.07,215.04,132.5,214.75,132.79,213.99z"/>
		<path class="st2" d="M141.21,216.78l-0.3,1.72l-5.43-0.95l1.27-7.22l5.43,0.95l-0.29,1.67l-3.26-0.57l-0.18,1.05l2.63,0.46
			l-0.28,1.6l-2.63-0.46l-0.21,1.18L141.21,216.78z"/>
		<path class="st2" d="M151.11,214.77l1.9,0.26c-0.25,0.99-0.67,1.74-1.25,2.25c0.16,0.14,0.39,0.21,0.69,0.22
			c0.14,0,0.31-0.01,0.52-0.02l-0.03,1.58c-0.3,0.07-0.59,0.11-0.87,0.1c-0.67-0.01-1.24-0.22-1.71-0.62
			c-0.5,0.41-1.2,0.61-2.12,0.59c-0.86-0.01-1.56-0.22-2.1-0.63c-0.55-0.41-0.81-0.97-0.8-1.68c0.02-0.95,0.59-1.61,1.73-1.99
			c-0.39-0.51-0.58-0.99-0.57-1.44c0.01-0.57,0.23-1.01,0.66-1.34s1.02-0.48,1.76-0.47c0.7,0.01,1.26,0.18,1.68,0.5
			c0.42,0.33,0.62,0.77,0.61,1.33c-0.01,0.46-0.15,0.85-0.44,1.16c-0.28,0.31-0.61,0.52-0.98,0.62l0.74,0.82
			C150.78,215.78,150.98,215.36,151.11,214.77z M148.03,215.91c-0.35,0.15-0.53,0.41-0.54,0.79c0,0.25,0.07,0.45,0.24,0.6
			s0.39,0.23,0.68,0.24c0.34,0.01,0.62-0.09,0.83-0.28L148.03,215.91z M148.95,214.13c0.36-0.13,0.54-0.36,0.55-0.67
			c0-0.16-0.05-0.29-0.14-0.39c-0.1-0.11-0.23-0.16-0.41-0.16c-0.15,0-0.27,0.04-0.37,0.13c-0.1,0.09-0.15,0.19-0.15,0.32
			C148.42,213.58,148.6,213.84,148.95,214.13z"/>
		<path class="st2" d="M159.55,215.69l0.41,2.63l-2.26,0.35l-1.11-7.25l3.1-0.48c0.77-0.12,1.37-0.12,1.8,0
			c0.43,0.12,0.79,0.34,1.08,0.67s0.47,0.72,0.54,1.17c0.11,0.69-0.05,1.28-0.46,1.78s-1.03,0.81-1.83,0.93L159.55,215.69z
			 M159.28,214.14l0.74-0.11c0.66-0.1,0.95-0.39,0.87-0.87c-0.07-0.45-0.41-0.63-1.01-0.54l-0.82,0.12L159.28,214.14z"/>
		<path class="st2" d="M168.8,216.45l-0.77-1.29l-1.9,0.5l-0.06,1.51l-1.77,0.47l0.32-7.67l2.3-0.61l4.09,6.5L168.8,216.45z
			 M166.09,214.02l1.15-0.3l-1.12-1.91L166.09,214.02z"/>
		<path class="st2" d="M178.4,213.03l-2.32,0.91l-2.02-2.22l-0.66,0.26l1.03,2.61l-2.09,0.82l-2.68-6.82l3.56-1.4
			c0.79-0.31,1.47-0.37,2.05-0.17s0.99,0.6,1.23,1.2c0.15,0.39,0.21,0.77,0.17,1.14s-0.26,0.76-0.66,1.18L178.4,213.03z
			 M172.82,210.53l0.89-0.35c0.26-0.1,0.45-0.24,0.57-0.42c0.12-0.17,0.13-0.37,0.05-0.58c-0.17-0.44-0.53-0.55-1.06-0.34
			l-0.96,0.38L172.82,210.53z"/>
		<path class="st2" d="M180.09,205.9l2.56,4.95l-1.89,0.98l-2.56-4.95l-1.35,0.7l-0.81-1.56l4.59-2.38l0.81,1.56L180.09,205.9z"/>
		<path class="st2" d="M190.38,206.09l-1.53,1l-3.45-1.61c-0.44-0.21-0.94-0.49-1.48-0.84c0.36,0.33,0.63,0.63,0.81,0.91l1.94,2.97
			l-1.53,1l-4.01-6.13l1.78-1.17l2.9,1.31c0.58,0.26,1.05,0.51,1.42,0.75c-0.44-0.46-0.84-0.97-1.2-1.51l-1.19-1.82l1.53-1
			L190.38,206.09z"/>
		<path class="st2" d="M195.08,200.04l1.11,1.35l-4.25,3.51l-4.67-5.65l4.25-3.51l1.08,1.3l-2.55,2.11l0.68,0.82l2.06-1.7l1.04,1.25
			l-2.06,1.7l0.76,0.92L195.08,200.04z"/>
		<path class="st2" d="M201.91,195.64l-1.74,1.79l-2.76-1.18l-0.49,0.51l2.01,1.95l-1.57,1.62l-5.26-5.1l2.67-2.75
			c0.59-0.61,1.19-0.94,1.8-1c0.61-0.06,1.15,0.13,1.61,0.59c0.3,0.29,0.51,0.62,0.62,0.96c0.11,0.35,0.08,0.8-0.11,1.34
			L201.91,195.64z M195.79,195.67l0.67-0.69c0.2-0.2,0.31-0.41,0.35-0.61c0.04-0.21-0.03-0.39-0.19-0.55
			c-0.34-0.33-0.71-0.28-1.11,0.13l-0.72,0.74L195.79,195.67z"/>
		<path class="st2" d="M200.9,193.58l0.98-1.88c0.58,0.22,1.08,0.04,1.53-0.53c0.35-0.45,0.4-0.76,0.16-0.95
			c-0.12-0.1-0.26-0.12-0.41-0.07s-0.35,0.19-0.61,0.41c-0.98,0.87-1.74,1.32-2.28,1.37c-0.54,0.05-1.02-0.09-1.45-0.42
			c-0.55-0.42-0.84-0.98-0.88-1.68s0.24-1.43,0.84-2.21c0.91-1.18,1.99-1.6,3.23-1.24l-0.69,1.82c-0.51-0.15-0.94,0.01-1.3,0.48
			c-0.3,0.39-0.33,0.68-0.09,0.86c0.11,0.08,0.23,0.1,0.35,0.06c0.13-0.04,0.31-0.17,0.56-0.38c0.68-0.58,1.19-0.97,1.53-1.18
			c0.34-0.21,0.72-0.3,1.14-0.28s0.82,0.17,1.19,0.45c0.59,0.45,0.88,1.06,0.88,1.82c0,0.76-0.3,1.52-0.9,2.3
			C203.6,193.74,202.33,194.15,200.9,193.58z"/>
		<path class="st2" d="M204.42,179.27l6.27,3.8l-1.17,1.92l-2.44-1.48l-0.89,1.47l2.44,1.48l-1.17,1.92l-6.27-3.8l1.17-1.92
			l2.31,1.4l0.89-1.47l-2.31-1.4L204.42,179.27z"/>
		<path class="st2" d="M205.92,176.14l6.58,3.23l-0.99,2.02l-6.58-3.23L205.92,176.14z"/>
		<path class="st2" d="M211.67,174.58l2.48,0.96l-0.83,2.13l-6.83-2.65l1.13-2.92c0.28-0.73,0.58-1.25,0.89-1.56
			c0.31-0.31,0.69-0.52,1.12-0.6c0.43-0.09,0.86-0.05,1.29,0.12c0.65,0.25,1.09,0.68,1.31,1.29c0.22,0.61,0.19,1.29-0.1,2.05
			L211.67,174.58z M210.2,174.04l0.27-0.7c0.24-0.62,0.13-1.01-0.32-1.19c-0.43-0.17-0.75,0.04-0.97,0.61l-0.3,0.77L210.2,174.04z"
			/>
	</g>
	<g>
		<path class="st2" d="M86.25,140.58l0.41-2.21c0.96,0.23,1.66,0.68,2.1,1.36s0.61,1.47,0.49,2.36c-0.14,1.08-0.6,1.9-1.4,2.48
			c-0.8,0.57-1.82,0.78-3.08,0.62c-1.24-0.16-2.21-0.6-2.89-1.32s-0.96-1.65-0.82-2.77c0.13-1.05,0.52-1.82,1.18-2.31
			c0.65-0.49,1.46-0.71,2.43-0.67l-0.16,2.29c-0.53-0.07-0.93-0.01-1.19,0.16c-0.26,0.17-0.41,0.4-0.44,0.67
			c-0.1,0.77,0.63,1.25,2.17,1.44c0.86,0.11,1.46,0.08,1.8-0.08c0.34-0.16,0.53-0.42,0.57-0.78
			C87.51,141.18,87.12,140.77,86.25,140.58z"/>
		<path class="st2" d="M89.58,130.88l1.85,0.48l-1.52,5.82l-7.74-2.02l1.52-5.82l1.79,0.47l-0.91,3.49l1.12,0.29l0.74-2.82
			l1.72,0.45l-0.74,2.82l1.26,0.33L89.58,130.88z"/>
		<path class="st2" d="M94.54,123.47l-0.76,1.85l-4.1,0.68c-0.53,0.09-1.14,0.14-1.85,0.16c0.53,0.08,0.96,0.18,1.29,0.32l3.58,1.48
			l-0.76,1.84l-7.39-3.05l0.88-2.15l3.42-0.61c0.68-0.12,1.26-0.19,1.74-0.19c-0.68-0.14-1.35-0.35-2.01-0.63l-2.19-0.9l0.76-1.85
			L94.54,123.47z"/>
		<path class="st2" d="M91.86,115.77l5.29,3l-1.15,2.02l-5.29-3l-0.82,1.44l-1.67-0.94l2.78-4.91l1.67,0.95L91.86,115.77z"/>
		<path class="st2" d="M100.77,110.12l1.54,1.13l-3.55,4.86l-6.46-4.72l3.55-4.86l1.49,1.09l-2.13,2.91l0.94,0.68l1.72-2.36
			l1.43,1.05l-1.72,2.36l1.06,0.77L100.77,110.12z"/>
		<path class="st2" d="M108.29,104.85l-1.89,1.96l-3.02-1.28l-0.54,0.56l2.21,2.12l-1.7,1.77l-5.77-5.54l2.89-3.01
			c0.64-0.67,1.29-1.03,1.95-1.1c0.66-0.07,1.25,0.14,1.76,0.63c0.33,0.32,0.56,0.67,0.69,1.05c0.12,0.38,0.09,0.87-0.11,1.47
			L108.29,104.85z M101.62,104.91l0.73-0.76c0.21-0.22,0.34-0.45,0.38-0.67c0.04-0.22-0.03-0.42-0.22-0.6
			c-0.37-0.35-0.77-0.3-1.21,0.15l-0.78,0.82L101.62,104.91z"/>
		<path class="st2" d="M115.14,95.84L113,97.33l1.72,2.45l-1.96,1.37l-4.58-6.55l4.74-3.31l1.09,1.56l-2.78,1.94l0.75,1.07
			l2.14-1.49L115.14,95.84z"/>
		<path class="st2" d="M121.8,95.62c-1,0.52-1.98,0.61-2.96,0.28s-1.75-1.06-2.32-2.17c-0.55-1.06-0.71-2.09-0.46-3.1
			s0.9-1.78,1.96-2.34c0.99-0.51,1.96-0.61,2.92-0.28s1.72,1.04,2.29,2.12c0.59,1.13,0.74,2.19,0.47,3.2
			C123.43,94.35,122.79,95.11,121.8,95.62z M120.95,94.02c0.37-0.19,0.55-0.49,0.54-0.89c-0.01-0.4-0.23-1.03-0.67-1.89
			c-0.64-1.23-1.29-1.68-1.96-1.33c-0.71,0.37-0.71,1.26,0.03,2.67C119.58,93.89,120.27,94.37,120.95,94.02z"/>
		<path class="st2" d="M133.37,90.8l-2.57,0.89l-2.11-2.51l-0.73,0.25l1,2.89l-2.32,0.8l-2.62-7.56l3.95-1.37
			c0.87-0.3,1.62-0.33,2.24-0.09c0.62,0.24,1.05,0.7,1.28,1.36c0.15,0.44,0.2,0.85,0.13,1.25s-0.32,0.81-0.77,1.26L133.37,90.8z
			 M127.4,87.82l0.99-0.34c0.29-0.1,0.5-0.24,0.64-0.43c0.13-0.18,0.16-0.39,0.08-0.63c-0.17-0.48-0.55-0.62-1.14-0.42l-1.07,0.37
			L127.4,87.82z"/>
		<path class="st2" d="M144.73,86.86l0.25,1.89l-5.96,0.8l-1.06-7.93l5.96-0.8l0.24,1.83l-3.58,0.48l0.15,1.15l2.89-0.39l0.23,1.76
			l-2.89,0.39l0.17,1.3L144.73,86.86z"/>
		<path class="st2" d="M153.41,88.69l-2-0.03l-2.13-3.57c-0.27-0.46-0.55-1.01-0.82-1.67c0.12,0.52,0.18,0.96,0.17,1.32l-0.06,3.87
			l-1.99-0.03l0.13-8l2.32,0.04l1.82,2.96c0.36,0.59,0.63,1.1,0.82,1.55c-0.11-0.69-0.17-1.39-0.15-2.1l0.04-2.37l2,0.03
			L153.41,88.69z"/>
		<path class="st2" d="M163.45,81.84l-3.57,7.58l-2.48-0.35l-1.46-8.28l2.56,0.36l0.65,4.49c0.05,0.27,0.09,0.53,0.12,0.79
			l2.17-4.87L163.45,81.84z"/>
		<path class="st2" d="M168.13,83.02l-1.95,7.76l-2.38-0.6l1.95-7.76L168.13,83.02z"/>
		<path class="st2" d="M174.94,93.79l-2.55-0.95l-0.02-3.27l-0.73-0.27l-1.07,2.86l-2.3-0.86l2.8-7.49l3.91,1.46
			c0.86,0.32,1.46,0.78,1.78,1.36c0.33,0.58,0.37,1.21,0.12,1.87c-0.16,0.43-0.39,0.78-0.69,1.05c-0.3,0.27-0.76,0.42-1.39,0.48
			L174.94,93.79z M172.24,87.69l0.98,0.37c0.29,0.11,0.54,0.13,0.76,0.08c0.22-0.06,0.38-0.2,0.46-0.43
			c0.18-0.48-0.03-0.83-0.61-1.05l-1.06-0.4L172.24,87.69z"/>
		<path class="st2" d="M179.46,96.3c-0.99-0.54-1.61-1.31-1.87-2.31c-0.26-1-0.09-2.04,0.51-3.14c0.58-1.05,1.35-1.75,2.32-2.11
			c0.97-0.36,1.98-0.24,3.04,0.33c0.98,0.54,1.59,1.3,1.85,2.28c0.26,0.98,0.1,2.01-0.5,3.08c-0.61,1.11-1.41,1.83-2.4,2.16
			S180.44,96.83,179.46,96.3z M180.33,94.7c0.36,0.2,0.71,0.18,1.04-0.04s0.73-0.76,1.19-1.61c0.67-1.22,0.68-2.01,0.02-2.37
			c-0.71-0.39-1.44,0.11-2.2,1.5C179.67,93.49,179.65,94.33,180.33,94.7z"/>
		<path class="st2" d="M189.68,103.07l-1.59-1.2l0.38-4.14c0.05-0.53,0.15-1.14,0.32-1.83c-0.21,0.49-0.42,0.88-0.64,1.16
			l-2.33,3.09l-1.59-1.2l4.82-6.38l1.85,1.4l-0.28,3.46c-0.05,0.69-0.14,1.27-0.25,1.73c0.31-0.62,0.68-1.22,1.12-1.79l1.43-1.89
			l1.59,1.2L189.68,103.07z"/>
		<path class="st2" d="M203.01,105.05l-5.76,5.54l-1.58-1.64l4.12-3.96l-5.15,2.9l-1.08-1.12l3.05-5.07l-4.12,3.96l-1.28-1.33
			l5.76-5.54l2.22,2.31l-2.26,3.78l3.83-2.15L203.01,105.05z"/>
		<path class="st2" d="M203.48,116.02l-1.56,1.11l-3.49-4.91l6.52-4.63l3.49,4.91l-1.5,1.07l-2.09-2.94l-0.95,0.67l1.69,2.38
			l-1.45,1.03l-1.69-2.38l-1.07,0.76L203.48,116.02z"/>
		<path class="st2" d="M205.96,124.56l-0.93-1.77l2.11-3.58c0.27-0.46,0.63-0.97,1.07-1.52c-0.4,0.35-0.75,0.61-1.07,0.78l-3.43,1.8
			l-0.93-1.76l7.08-3.72l1.08,2.05l-1.73,3.01c-0.34,0.6-0.67,1.09-0.97,1.46c0.55-0.43,1.14-0.81,1.77-1.14l2.1-1.1l0.93,1.77
			L205.96,124.56z"/>
		<path class="st2" d="M213.6,127.46l-5.7,2.13l-0.81-2.18l5.7-2.13l-0.58-1.55l1.79-0.67l1.98,5.29l-1.79,0.67L213.6,127.46z"/>
		<path class="st2" d="M209.86,136.39l1.42-0.82l-0.52-2.08l-1.65-0.09l-0.48-1.93l8.36,0.47l0.63,2.52l-7.16,4.36L209.86,136.39z
			 M212.56,133.47l0.31,1.26l2.1-1.19L212.56,133.47z"/>
		<path class="st2" d="M213.25,145.58l-1.95,0.23l-0.65-5.57l7.94-0.93l0.29,2.44l-5.99,0.7L213.25,145.58z"/>
	</g>
	<polygon class="st0" points="84.63,154 85.92,157.95 90.06,157.95 86.71,160.38 87.99,164.33 84.63,161.89 81.28,164.33 
		82.56,160.38 79.21,157.95 83.35,157.95 	"/>
	<polygon class="st0" points="215.37,154 216.65,157.95 220.79,157.95 217.44,160.38 218.72,164.33 215.37,161.89 212.01,164.33 
		213.29,160.38 209.94,157.95 214.08,157.95 	"/>
	<path d="M124.65,143.39c-0.02,0.1-0.04,0.2-0.05,0.3c-0.06-0.1-0.13-0.2-0.18-0.3H124.65z"/>
	<path d="M124.73,143.9c0.01,0.03,0.01,0.07,0,0.11c-0.02,0.1-0.05,0.19-0.07,0.29c-0.05,0.23-0.1,0.45-0.14,0.68
		c-0.02,0.11-0.03,0.23-0.05,0.34c-0.02,0.12-0.03,0.24-0.05,0.36c0.01-0.12,0.01-0.25,0.03-0.37c0.02-0.27,0.04-0.54,0.06-0.81
		c0.02-0.14,0.03-0.27,0.05-0.41c0.01-0.13,0.02-0.27,0.04-0.4C124.66,143.77,124.72,143.83,124.73,143.9z"/>
	<path d="M135.09,143.91l-0.1,0.13c-0.17-0.1-0.36-0.17-0.55-0.22C134.66,143.86,134.88,143.9,135.09,143.91z"/>
	<path d="M137.85,143.39c-0.06,0.03-0.12,0.06-0.18,0.09c0.02-0.03,0.03-0.06,0.04-0.09H137.85z"/>
	<g>
		<path class="st2" d="M155.54,147.12c-1.01,0-1.51,0.99-1.51,2.97c0,1.86,0.48,2.79,1.45,2.79c0.52,0,0.89-0.23,1.12-0.68
			c0.23-0.45,0.34-1.28,0.34-2.48C156.94,147.99,156.48,147.12,155.54,147.12z"/>
		<path class="st2" d="M167.24,147.29h-1.13v1.93h1.03c0.9,0,1.35-0.33,1.35-1C168.49,147.6,168.07,147.29,167.24,147.29z"/>
		<polygon class="st2" points="176.33,150.85 177.95,150.85 177.14,147.95 		"/>
		<path class="st2" d="M180.61,143.39h-2.38c0.08,0.53,0.14,1.07,0.19,1.61h0.63l3.14,10h-3.13l-0.57-1.97h-0.54
			c-0.25,1.23-0.59,2.42-1,3.58h3.66c1.83,0,3.48-0.74,4.67-1.94c1.2-1.19,1.94-2.85,1.94-4.67
			C187.22,146.35,184.26,143.39,180.61,143.39z M122.35,155.15c-1.35,0-2.45-0.45-3.28-1.35c-0.84-0.89-1.26-2.13-1.26-3.72
			c0-1.56,0.4-2.83,1.19-3.79s1.89-1.44,3.31-1.44c0.78,0,1.45,0.14,2.02,0.41c0.04,0.01,0.08,0.03,0.12,0.05
			c0.02-0.27,0.04-0.54,0.06-0.81c0.02-0.14,0.03-0.27,0.05-0.41c0.01-0.13,0.02-0.27,0.04-0.4c-0.03-0.04-0.05-0.09-0.08-0.13
			c-0.02-0.04-0.05-0.07-0.07-0.11c-0.01-0.02-0.02-0.04-0.03-0.06h-5.03c-1.83,0-3.48,0.74-4.67,1.94
			c-1.2,1.19-1.94,2.85-1.94,4.67c0,3.65,2.96,6.61,6.61,6.61h6.43c-0.27-0.77-0.52-1.56-0.72-2.36
			C124.34,154.86,123.43,155.15,122.35,155.15z M125.3,143.39h-0.65c-0.02,0.1-0.04,0.2-0.05,0.3c0.06,0.08,0.12,0.14,0.13,0.21
			C124.91,143.72,125.1,143.55,125.3,143.39z M123.7,149.01c0-0.66-0.13-1.15-0.38-1.45c-0.26-0.29-0.56-0.44-0.91-0.44
			c-0.96,0-1.45,0.97-1.45,2.91c0,1.09,0.13,1.83,0.38,2.22s0.6,0.59,1.06,0.59c0.81,0,1.26-0.55,1.36-1.66l0.74,0.05
			c-0.1-0.74-0.18-1.49-0.22-2.25L123.7,149.01z"/>
		<path class="st2" d="M175.21,155h-2.49l3.09-10h2.61c-0.05-0.54-0.11-1.08-0.19-1.61h-40.38c-0.06,0.03-0.12,0.06-0.18,0.09
			c0.02-0.03,0.03-0.06,0.04-0.09H125.3c-0.2,0.16-0.39,0.33-0.57,0.51c0.01,0.03,0.01,0.07,0,0.11c-0.02,0.1-0.05,0.19-0.07,0.29
			c-0.05,0.23-0.1,0.45-0.14,0.68c-0.02,0.11-0.03,0.23-0.05,0.34c0.33,0.17,0.64,0.37,0.89,0.63c0.71,0.73,1.11,1.7,1.21,2.91
			l-2.29,0.12c0.04,0.76,0.12,1.51,0.22,2.25l2.07,0.12c-0.14,1.23-0.59,2.17-1.36,2.82c-0.04,0.03-0.07,0.06-0.11,0.08
			c0.2,0.8,0.45,1.59,0.72,2.36h51.13c0.41-1.16,0.75-2.35,1-3.58h-2.14L175.21,155z M135.09,143.91l-0.1,0.13
			c-0.17-0.1-0.36-0.17-0.55-0.22C134.66,143.86,134.88,143.9,135.09,143.91z M136.71,147.31h-4.51v1.45h3.64v2.22h-3.64v1.63h4.51
			V155h-7.52v-10h7.52V147.31z M142.69,152.23c0.32,0.37,0.71,0.55,1.17,0.55c0.37,0,0.69-0.11,0.95-0.34
			c0.26-0.22,0.39-0.53,0.4-0.92h-1.66v-2.12h4.51v5.6h-1.5c-0.12-0.42-0.26-0.77-0.41-1.05c-0.62,0.8-1.53,1.2-2.75,1.2
			c-1.29,0-2.35-0.45-3.18-1.35c-0.83-0.9-1.24-2.12-1.24-3.66c0-1.49,0.4-2.75,1.2-3.77c0.8-1.01,2-1.52,3.59-1.52
			c1.19,0,2.15,0.3,2.88,0.91c0.72,0.6,1.19,1.46,1.41,2.57l-2.97,0.3c-0.15-1.04-0.61-1.56-1.37-1.56c-1.01,0-1.51,0.95-1.51,2.87
			C142.21,151.09,142.37,151.86,142.69,152.23z M158.92,153.72c-0.88,0.95-2.02,1.43-3.42,1.43c-1.41,0-2.55-0.46-3.44-1.4
			c-0.89-0.93-1.33-2.18-1.33-3.74c0-1.49,0.42-2.73,1.27-3.7c0.85-0.98,2.02-1.46,3.53-1.46c1.39,0,2.52,0.46,3.4,1.37
			c0.88,0.92,1.31,2.15,1.31,3.68C160.24,151.49,159.8,152.76,158.92,153.72z M170.55,150.49c-0.67,0.58-1.55,0.88-2.66,0.88h-1.74
			V155h-3.11v-10h4.27c1.07,0,1.87,0.12,2.43,0.37c0.55,0.24,0.99,0.62,1.32,1.12c0.32,0.5,0.48,1.06,0.48,1.69
			C171.54,149.13,171.21,149.9,170.55,150.49z"/>
	</g>
</g>
</svg>
